<svg xmlns="http://www.w3.org/2000/svg" xmlns:xlink="http://www.w3.org/1999/xlink" width="1080" height="1080" style="width:100%;height:100%;transform:translate3d(0,0,0);content-visibility:visible"><defs><mask id="cn" mask-type="alpha"><use xlink:href="#a"/></mask><mask id="cl" mask-type="alpha"><g filter="url(#b)"><use xlink:href="#c"/></g></mask><mask id="ck" mask-type="alpha"><use xlink:href="#d"/></mask><mask id="cj" mask-type="alpha"><use xlink:href="#e"/></mask><mask id="ch" mask-type="alpha"><g filter="url(#f)"><use xlink:href="#g"/></g></mask><mask id="cf" mask-type="alpha"><use xlink:href="#h"/></mask><mask id="cd" mask-type="alpha"><g filter="url(#i)"><use xlink:href="#j"/></g></mask><mask id="cc" mask-type="alpha"><use xlink:href="#k"/></mask><mask id="cb" mask-type="alpha"><use xlink:href="#l"/></mask><mask id="bZ" mask-type="alpha"><g filter="url(#m)"><use xlink:href="#n"/></g></mask><mask id="bX" mask-type="alpha"><use xlink:href="#o"/></mask><mask id="bV" mask-type="alpha"><g filter="url(#p)"><use xlink:href="#q"/></g></mask><mask id="bU" mask-type="alpha"><use xlink:href="#r"/></mask><mask id="bT" mask-type="alpha"><use xlink:href="#s"/></mask><mask id="bR" mask-type="alpha"><g filter="url(#t)"><use xlink:href="#u"/></g></mask><mask id="bH" mask-type="alpha"><use xlink:href="#v"/></mask><mask id="bG" mask-type="alpha"><use xlink:href="#w"/></mask><mask id="bE" mask-type="alpha"><use xlink:href="#x"/></mask><mask id="bD" mask-type="alpha"><use xlink:href="#y"/></mask><mask id="bB" mask-type="alpha"><use xlink:href="#z"/></mask><mask id="bA" mask-type="alpha"><use xlink:href="#A"/></mask><mask id="by" mask-type="alpha"><use xlink:href="#B"/></mask><mask id="bx" mask-type="alpha"><use xlink:href="#C"/></mask><mask id="bu" mask-type="alpha"><use xlink:href="#D"/></mask><mask id="bv" mask-type="alpha"><use xlink:href="#E"/></mask><mask id="br" mask-type="alpha"><use xlink:href="#F"/></mask><mask id="bs" mask-type="alpha"><use xlink:href="#G"/></mask><mask id="bo" mask-type="alpha"><use xlink:href="#H"/></mask><mask id="bp" mask-type="alpha"><use xlink:href="#I"/></mask><mask id="bl" mask-type="alpha"><use xlink:href="#J"/></mask><mask id="bm" mask-type="alpha"><use xlink:href="#K"/></mask><mask id="bh" mask-type="alpha"><use xlink:href="#L"/></mask><mask id="bd" mask-type="alpha"><use xlink:href="#M"/></mask><mask id="aZ" mask-type="alpha"><use xlink:href="#N"/></mask><mask id="aX" mask-type="alpha"><use xlink:href="#O"/></mask><mask id="aW" mask-type="alpha"><use xlink:href="#P"/></mask><mask id="aV" mask-type="alpha"><use xlink:href="#Q"/></mask><mask id="aT" mask-type="alpha"><use xlink:href="#R"/></mask><mask id="aS" mask-type="alpha"><use xlink:href="#S"/></mask><mask id="aR" mask-type="alpha"><use xlink:href="#T"/></mask><mask id="aP" mask-type="alpha"><use xlink:href="#U"/></mask><mask id="aO" mask-type="alpha"><use xlink:href="#V"/></mask><mask id="aN" mask-type="alpha"><use xlink:href="#W"/></mask><mask id="aL" mask-type="alpha"><use xlink:href="#X"/></mask><mask id="aK" mask-type="alpha"><use xlink:href="#Y"/></mask><mask id="aJ" mask-type="alpha"><use xlink:href="#Z"/></mask><mask id="aG" mask-type="alpha"><use xlink:href="#aa"/></mask><mask id="aF" mask-type="alpha"><use xlink:href="#ab"/></mask><mask id="aE" mask-type="alpha"><use xlink:href="#ac"/></mask><mask id="aC" mask-type="alpha"><use xlink:href="#ad"/></mask><mask id="az" mask-type="alpha"><use xlink:href="#ae"/></mask><mask id="ay" mask-type="alpha"><use xlink:href="#af"/></mask><mask id="ax" mask-type="alpha"><use xlink:href="#ag"/></mask><mask id="av" mask-type="alpha"><use xlink:href="#ah"/></mask><mask id="as" mask-type="alpha"><use xlink:href="#ai"/></mask><mask id="ar" mask-type="alpha"><use xlink:href="#aj"/></mask><mask id="aq" mask-type="alpha"><use xlink:href="#ak"/></mask><mask id="ao" mask-type="alpha"><use xlink:href="#al"/></mask><clipPath id="am"><path d="M0 0h1080v1080H0z"/></clipPath><clipPath id="cg"><path d="M0 0h1920v1079H0z"/></clipPath><clipPath id="cm"><path d="M0 0h1920v1079H0z"/></clipPath><clipPath id="ci"><path d="M0 0h1920v1079H0z"/></clipPath><clipPath id="bY"><path d="M0 0h1920v1079H0z"/></clipPath><clipPath id="ce"><path d="M0 0h1920v1079H0z"/></clipPath><clipPath id="ca"><path d="M0 0h1920v1079H0z"/></clipPath><clipPath id="bQ"><path d="M0 0h1920v1079H0z"/></clipPath><clipPath id="bW"><path d="M0 0h1920v1079H0z"/></clipPath><clipPath id="bS"><path d="M0 0h1920v1079H0z"/></clipPath><clipPath id="bP"><path d="M0 0h1920v1079H0z"/></clipPath><clipPath id="bO"><path d="M0 0h1920v1079H0z"/></clipPath><clipPath id="bN"><path d="M0 0h1920v1079H0z"/></clipPath><clipPath id="bM"><path d="M0 0h1920v1079H0z"/></clipPath><clipPath id="bL"><path d="M0 0h1920v1079H0z"/></clipPath><clipPath id="bK"><path d="M0 0h1920v1079H0z"/></clipPath><clipPath id="bJ"><path d="M0 0h1920v1079H0z"/></clipPath><clipPath id="bI"><path d="M0 0h1920v1079H0z"/></clipPath><clipPath id="bF"><path d="M0 0h1920v1079H0z"/></clipPath><clipPath id="bC"><path d="M0 0h1920v1079H0z"/></clipPath><clipPath id="bz"><path d="M0 0h1920v1079H0z"/></clipPath><clipPath id="bw"><path d="M0 0h1920v1079H0z"/></clipPath><clipPath id="bt"><path d="M0 0h1920v1079H0z"/></clipPath><clipPath id="bq"><path d="M0 0h1920v1079H0z"/></clipPath><clipPath id="bn"><path d="M0 0h1920v1079H0z"/></clipPath><clipPath id="bk"><path d="M0 0h1920v1079H0z"/></clipPath><clipPath id="bg"><path d="M0 0h1920v1079H0z"/></clipPath><clipPath id="bi"><path d="M0 0h1920v1079H0z"/></clipPath><clipPath id="bc"><path d="M0 0h1920v1079H0z"/></clipPath><clipPath id="be"><path d="M0 0h1920v1079H0z"/></clipPath><clipPath id="aY"><path d="M0 0h1920v1079H0z"/></clipPath><clipPath id="ba"><path d="M0 0h1920v1079H0z"/></clipPath><clipPath id="aU"><path d="M0 0h1920v1079H0z"/></clipPath><clipPath id="aQ"><path d="M0 0h1920v1079H0z"/></clipPath><clipPath id="aM"><path d="M0 0h1920v1079H0z"/></clipPath><clipPath id="aI"><path d="M0 0h1920v1079H0z"/></clipPath><clipPath id="aB"><path d="M0 0h1920v1079H0z"/></clipPath><clipPath id="aH"><path d="M0 0h1920v1079H0z"/></clipPath><clipPath id="aD"><path d="M0 0h1920v1079H0z"/></clipPath><clipPath id="au"><path d="M0 0h1920v1079H0z"/></clipPath><clipPath id="aA"><path d="M0 0h1920v1079H0z"/></clipPath><clipPath id="aw"><path d="M0 0h1920v1079H0z"/></clipPath><clipPath id="an"><path d="M0 0h1920v1079H0z"/></clipPath><clipPath id="at"><path d="M0 0h1920v1079H0z"/></clipPath><clipPath id="ap"><path d="M0 0h1920v1079H0z"/></clipPath><path id="e" fill="#DB8D74" d="M521.5 303c-16.5 11-42 12.5-66 13.5s-53.834 22.53-51 52c2.5 26 27.5 43 54.5 43.5 30.012.556 61-2.5 100.5-24s36.5-55.5 23.5-77-45-19-61.5-8z" style="display:block" transform="rotate(-6 6207.043 -8631.536)"/><path id="l" fill="#DB8D74" d="M521.5 303c-16.5 11-42 12.5-66 13.5s-53.834 22.53-51 52c2.5 26 27.5 43 54.5 43.5 30.012.556 61-2.5 100.5-24s36.5-55.5 23.5-77-45-19-61.5-8z" style="display:block" transform="rotate(-10 4091.52 -4911.194)"/><path id="o" fill="#DB8D74" d="M482.763 275.603c-62.54 10.163-70.236 76.625-62.591 127.106 8.645 49.929 23.159 76.255 59.745 71.089 30.143-4.48 46.95-27.825 42.718-65.137-4.113-34.11 2.888-55.598 6.279-76.482 5.387-32.209-15.527-60.714-46.15-56.576z" style="display:block" transform="rotate(35.667 107.154 2195.246)"/><path id="s" fill="#DB8D74" d="M521.5 303c-16.5 11-42 12.5-66 13.5s-53.834 22.53-51 52c2.5 26 27.5 43 54.5 43.5 30.012.556 61-2.5 100.5-24s36.5-55.5 23.5-77-45-19-61.5-8z" style="display:block" transform="translate(975 551.5)"/><path id="v" fill="#FFCBA3" d="M208.585-408.855c-7.835-3.645-36.835-2.645-50.532 21.238-12.377 21.58-5.057 49.093 16.487 61.532 0 0 2.21 1.585 4.192 2.604C165-376.5 201.25-403.25 213.777-407.001c-1.277-.999-5.192-1.854-5.192-1.854z" style="display:block" transform="rotate(.02 -2326156.838 4082455.061)"/><path id="w" fill="#B23232" d="m181.611-391.64 1.47 3.198c1.386 3.013.04 6.561-3.004 7.925-3.045 1.363-6.635.025-8.02-2.989l-1.47-3.198c-1.386-3.014-.041-6.561 3.004-7.925 3.044-1.363 6.635-.026 8.02 2.988z" style="display:block" transform="rotate(.02 -2326156.838 4082455.061)"/><path id="x" fill="#FFCBA3" d="M208.585-408.855c-7.835-3.645-36.835-2.645-50.532 21.238-12.377 21.58-5.057 49.093 16.487 61.532 0 0 2.21 1.585 4.192 2.604C165-376.5 201.25-403.25 213.777-407.001c-1.277-.999-5.192-1.854-5.192-1.854z" style="display:block" transform="rotate(1 -33220.25 59366.488)"/><path id="y" fill="#B23232" d="m183.974-391.37 1.153 3.361c1.086 3.167-.725 6.528-4.045 7.505-3.32.978-6.894-.798-7.98-3.965l-1.153-3.361c-1.086-3.168.725-6.528 4.046-7.506 3.32-.977 6.893.798 7.98 3.966z" style="display:block" transform="rotate(1 -33220.25 59366.488)"/><path id="z" fill="#FFCBA3" d="M208.585-408.855c-7.835-3.645-36.835-2.645-50.532 21.238-12.377 21.58-5.057 49.093 16.487 61.532 0 0 2.21 1.585 4.192 2.604C165-376.5 201.25-403.25 213.777-407.001c-1.277-.999-5.192-1.854-5.192-1.854z" style="display:block" transform="rotate(1.568 -20927.52 37851.114)"/><path id="A" fill="#B23232" d="m184.23-391.34 1.119 3.378c1.054 3.184-.808 6.524-4.159 7.46-3.35.936-6.92-.888-7.975-4.072l-1.118-3.378c-1.054-3.185.808-6.524 4.158-7.46 3.35-.936 6.921.887 7.975 4.071z" style="display:block" transform="rotate(1.568 -20927.52 37851.114)"/><path id="B" fill="#FFCBA3" d="M208.585-408.855c-7.835-3.645-36.835-2.645-50.532 21.238-12.377 21.58-5.057 49.093 16.487 61.532 0 0 2.21 1.585 4.192 2.604C165-376.5 201.25-403.25 213.777-407.001c-1.277-.999-5.192-1.854-5.192-1.854z" style="display:block" transform="rotate(1.568 -20927.273 37851.03)"/><path id="C" fill="#B23232" d="m184.225-391.341 1.12 3.378c1.054 3.183-.807 6.524-4.156 7.46-3.35.938-6.921-.885-7.976-4.069l-1.12-3.378c-1.053-3.184.808-6.524 4.157-7.46 3.35-.938 6.921.884 7.975 4.069z" style="display:block" transform="rotate(1.568 -20927.273 37851.03)"/><path id="E" fill="#58CC02" d="M318.202-45.464c15.252 94.999-31.572 144.035-95.655 159.537-84.448 20.428-134.794-43.146-151.05-96.71C16-165.5 158.631-177.933 166.59-174.39a21.642 21.642 0 0 0 13.898 1.277c13.72-3.334 29.364-13.462 52.062-24.71 28.634-14.19 72.547 1.407 71.323 40.679 0 0 5.505 56.717 14.329 111.68zm-15 4c15.252 94.999-16.572 140.035-80.655 155.537-84.448 20.428-144.155-35.09-168.05-85.71C36.399-9.976 31.209-79.308 31.209-79.308c-2.443-42.408 8.57-88.445 47.15-106.222 17.568-8.095 35.66-11.367 49.816-6.28 21.939 7.884 30.456 13.877 38.415 17.42 4.363 1.942 127.788 77.963 136.612 132.926z" style="display:block" transform="rotate(-2.646 13776.4 -22136.3)"/><path id="G" fill="#58CC02" d="M318.202-45.464c15.252 94.999-31.572 144.035-95.655 159.537-84.448 20.428-134.794-43.146-151.05-96.71C16-165.5 158.631-177.933 166.59-174.39a21.642 21.642 0 0 0 13.898 1.277c13.72-3.334 29.364-13.462 52.062-24.71 28.634-14.19 72.547 1.407 71.323 40.679 0 0 5.505 56.717 14.329 111.68zm-15 4c15.252 94.999-16.572 140.035-80.655 155.537-84.448 20.428-144.155-35.09-168.05-85.71C36.399-9.976 31.209-79.308 31.209-79.308c-2.443-42.408 8.57-88.445 47.15-106.222 17.568-8.095 35.66-11.367 49.816-6.28 21.939 7.884 30.456 13.877 38.415 17.42 4.363 1.942 127.788 77.963 136.612 132.926z" style="display:block" transform="rotate(-2.989 12395.394 -19598.074)"/><path id="I" fill="#58CC02" d="M318.202-45.464c15.252 94.999-31.572 144.035-95.655 159.537-84.448 20.428-134.794-43.146-151.05-96.71C16-165.5 158.631-177.933 166.59-174.39a21.642 21.642 0 0 0 13.898 1.277c13.72-3.334 29.364-13.462 52.062-24.71 28.634-14.19 72.547 1.407 71.323 40.679 0 0 5.505 56.717 14.329 111.68zm-15 4c15.252 94.999-16.572 140.035-80.655 155.537-84.448 20.428-144.155-35.09-168.05-85.71C36.399-9.976 31.209-79.308 31.209-79.308c-2.443-42.408 8.57-88.445 47.15-106.222 17.568-8.095 35.66-11.367 49.816-6.28 21.939 7.884 30.456 13.877 38.415 17.42 4.363 1.942 127.788 77.963 136.612 132.926z" style="display:block" transform="rotate(-2.347 15676.61 -25087.471)"/><path id="K" fill="#58CC02" d="M318.202-45.464c15.252 94.999-31.572 144.035-95.655 159.537-84.448 20.428-134.794-43.146-151.05-96.71C16-165.5 158.631-177.933 166.59-174.39a21.642 21.642 0 0 0 13.898 1.277c13.72-3.334 29.364-13.462 52.062-24.71 28.634-14.19 72.547 1.407 71.323 40.679 0 0 5.505 56.717 14.329 111.68zm-15 4c15.252 94.999-16.572 140.035-80.655 155.537-84.448 20.428-144.155-35.09-168.05-85.71C36.399-9.976 31.209-79.308 31.209-79.308c-2.443-42.408 8.57-88.445 47.15-106.222 17.568-8.095 35.66-11.367 49.816-6.28 21.939 7.884 30.456 13.877 38.415 17.42 4.363 1.942 127.788 77.963 136.612 132.926z" style="display:block" transform="rotate(-2.985 12394.635 -19619.16)"/><path id="L" fill="#FFC7B8" d="M552.811-154.957c-14.873-8.982-34.962-11.237-52.179-1.891l-28.256 15.339a51.11 51.11 0 0 0-25.616 34.316l-7.98 37.63C434.57-49.714 440-30 458.986-17.428 477.972-4.856 510.5 12 528.501 43.852c6.897 12.204 42.974 11.603 54.934 7.15l38.691-9.376A38.335 38.335 0 0 0 651.93 8.839l6.319-51.72c-.568-6.318-6.973-19.296-11.519-26.102C621-107.5 590-132.5 552.811-154.957z" style="display:block" transform="rotate(-6.966 5759.877 -7826.362)"/><path id="M" fill="#FFC7B8" d="M552.811-154.957c-14.873-8.982-34.962-11.237-52.179-1.891l-28.256 15.339a51.11 51.11 0 0 0-25.616 34.316l-7.98 37.63C434.57-49.714 440-30 458.986-17.428 477.972-4.856 510.5 12 528.501 43.852c6.897 12.204 42.974 11.603 54.934 7.15l38.691-9.376A38.335 38.335 0 0 0 651.93 8.839l6.319-51.72c-.568-6.318-6.973-19.296-11.519-26.102C621-107.5 590-132.5 552.811-154.957z" style="display:block" transform="rotate(-6.013 6533.832 -9071.623)"/><path id="N" fill="#FFC7B8" d="M552.811-154.957c-14.873-8.982-34.962-11.237-52.179-1.891l-28.256 15.339a51.11 51.11 0 0 0-25.616 34.316l-7.98 37.63C434.57-49.714 440-30 458.986-17.428 477.972-4.856 510.5 12 528.501 43.852c6.897 12.204 42.974 11.603 54.934 7.15l38.691-9.376A38.335 38.335 0 0 0 651.93 8.839l6.319-51.72c-.568-6.318-6.973-19.296-11.519-26.102C621-107.5 590-132.5 552.811-154.957z" style="display:block" transform="rotate(-6.966 5759.878 -7826.362)"/><path id="O" fill="#CC348D" d="M745.232-224.137c-.304-28.44 22.505-51.741 50.945-52.045 28.44-.304 51.741 22.506 52.045 50.946.304 28.44-22.505 51.74-50.945 52.044-28.44.304-51.741-22.505-52.045-50.945z" style="display:block" transform="rotate(-3.225 11773.017 -18195.726)"/><path id="P" fill="#0084C2" d="M732.862-124.382c4.759-25.473 29.266-42.264 54.739-37.505s42.265 29.265 37.506 54.738-29.266 42.265-54.739 37.506-42.265-29.266-37.506-54.739z" style="display:block" transform="rotate(3.225 -9135.546 18467.86)"/><path id="Q" fill="#AFD5E0" d="M750.527-172.52c-2.856 6.832 153.036 310.917-59.97 264.614s1.1-278.504 4.916-287.632c3.816-9.128 19.234-11.375 34.437-5.019 15.203 6.356 24.433 18.909 20.617 28.037z" style="display:block" transform="rotate(-6.449 6505.285 -9054.674)"/><path id="R" fill="#CC348D" d="M745.232-224.137c-.304-28.44 22.505-51.741 50.945-52.045 28.44-.304 51.741 22.506 52.045 50.946.304 28.44-22.505 51.74-50.945 52.044-28.44.304-51.741-22.505-52.045-50.945z" style="display:block" transform="rotate(-5.989 6934.078 -9712.103)"/><path id="S" fill="#0084C2" d="M732.862-124.382c4.759-25.473 29.266-42.264 54.739-37.505s42.265 29.265 37.506 54.738-29.266 42.265-54.739 37.506-42.265-29.266-37.506-54.739z" style="display:block" transform="rotate(5.989 -4300.438 9982.162)"/><path id="T" fill="#AFD5E0" d="M750.527-172.52c-2.856 6.832 153.036 310.917-59.97 264.614s1.1-278.504 4.916-287.632c3.816-9.128 19.234-11.375 34.437-5.019 15.203 6.356 24.433 18.909 20.617 28.037z" style="display:block" transform="rotate(-11.978 4080.432 -4797.177)"/><path id="U" fill="#CC348D" d="M745.232-224.137c-.304-28.44 22.505-51.741 50.945-52.045 28.44-.304 51.741 22.506 52.045 50.946.304 28.44-22.505 51.74-50.945 52.044-28.44.304-51.741-22.505-52.045-50.945z" style="display:block" transform="rotate(-5.904 7015.66 -9855.074)"/><path id="V" fill="#0084C2" d="M732.862-124.382c4.759-25.473 29.266-42.264 54.739-37.505s42.265 29.265 37.506 54.738-29.266 42.265-54.739 37.506-42.265-29.266-37.506-54.739z" style="display:block" transform="rotate(5.904 -4381.894 10125.201)"/><path id="W" fill="#AFD5E0" d="M750.527-172.52c-2.856 6.832 153.036 310.917-59.97 264.614s1.1-278.504 4.916-287.632c3.816-9.128 19.234-11.375 34.437-5.019 15.203 6.356 24.433 18.909 20.617 28.037z" style="display:block" transform="rotate(-11.807 4121.357 -4869.092)"/><path id="X" fill="#CC348D" d="M745.232-224.137c-.304-28.44 22.505-51.741 50.945-52.045 28.44-.304 51.741 22.506 52.045 50.946.304 28.44-22.505 51.74-50.945 52.044-28.44.304-51.741-22.505-52.045-50.945z" style="display:block" transform="rotate(-5.989 6934.078 -9712.103)"/><path id="Y" fill="#0084C2" d="M732.862-124.382c4.759-25.473 29.266-42.264 54.739-37.505s42.265 29.265 37.506 54.738-29.266 42.265-54.739 37.506-42.265-29.266-37.506-54.739z" style="display:block" transform="rotate(5.989 -4300.438 9982.162)"/><path id="Z" fill="#AFD5E0" d="M750.527-172.52c-2.856 6.832 153.036 310.917-59.97 264.614s1.1-278.504 4.916-287.632c3.816-9.128 19.234-11.375 34.437-5.019 15.203 6.356 24.433 18.909 20.617 28.037z" style="display:block" transform="rotate(-11.976 4080.956 -4798.09)"/><path id="aa" fill="#FFF" d="M638.033-169.849c-41.207 112.587-110.385 302.331-170.99 469.348-11.827 32.594-21.429 51.144-71.04 55.59-84.82 7.601-163.41 13.29-252.041 16.588-15.917.592-33.228-11.412-36.908-42.619-14.53-123.235-31.678-302.891-47.058-481.524-2.828-32.845 23.041-69.646 70.892-70.091 112.027-1.042 349.193-14.511 455.264-10.36 34.205 1.339 62.292 34.624 51.881 63.068z" style="display:block" transform="rotate(-145 914.887 215.665) scale(.5)"/><path id="ad" fill="#FFF" d="M615.125 597.383S518.546 449.096 506.719 481.69c-11.827 32.594-61.105-131.047-110.716-126.601-84.82 7.601-163.41 13.29-252.041 16.588-15.917.592-33.228-11.412-36.908-42.619-14.53-123.235-31.678-302.891-47.058-481.524-2.828-32.845 23.041-69.646 70.892-70.091 112.027-1.042 349.193-14.511 455.264-10.36 34.205 1.339 62.292 34.624 51.881 63.068C596.826-57.262 923.151 9.427 923.151 9.427s83.359 177.85 82.666 179.759c-.334.919-390.692 408.197-390.692 408.197z" style="display:block" transform="rotate(-145 914.887 215.665) scale(.5)"/><path id="ab" fill="#FFF" d="M412.599 78.212c-6.132 3.04-7.257 9.111-7.45 10.036l-2.078 9.955c-.804 3.852 1.678 7.626 5.543 8.43l7.348 1.528c7.924 1.648 15.683-3.417 17.331-11.313.495-2.371 3.308-16.424 3.308-16.424s-16.193-6.083-24.002-2.212zm-14.702-3.734c3.902 5.915 3.593 9.268 3.279 11.761-.411 3.262-1.961 10.655-1.961 10.655-.863 4.124-4.939 6.767-9.102 5.904l-7.271-1.508c-8.179-1.696-13.434-9.638-11.738-17.74.661-3.158 3.897-16.189 3.897-16.189s19.186 1.492 22.896 7.117z" style="display:block" transform="rotate(-.773 44097.058 -72757.563)"/><path id="ac" fill="#FFF" d="M412.599 78.212c-6.132 3.04-7.257 9.111-7.45 10.036l-2.078 9.955c-.804 3.852 1.678 7.626 5.543 8.43l7.348 1.528c7.924 1.648 15.683-3.417 17.331-11.313.495-2.371 3.308-16.424 3.308-16.424s-16.193-6.083-24.002-2.212zm-14.702-3.734c3.902 5.915 3.593 9.268 3.279 11.761-.411 3.262-1.961 10.655-1.961 10.655-.863 4.124-4.939 6.767-9.102 5.904l-7.271-1.508c-8.179-1.696-13.434-9.638-11.738-17.74.661-3.158 3.897-16.189 3.897-16.189s19.186 1.492 22.896 7.117z" style="display:block" transform="rotate(-.773 44097.058 -72757.563)"/><path id="ae" fill="#FFF" d="M638.033-169.849c-41.207 112.587-110.385 302.331-170.99 469.348-11.827 32.594-21.429 51.144-71.04 55.59-84.82 7.601-163.41 13.29-252.041 16.588-15.917.592-33.228-11.412-36.908-42.619-14.53-123.235-31.678-302.891-47.058-481.524-2.828-32.845 23.041-69.646 70.892-70.091 112.027-1.042 349.193-14.511 455.264-10.36 34.205 1.339 62.292 34.624 51.881 63.068z" style="display:block" transform="rotate(-145 914.887 215.665) scale(.5)"/><path id="ah" fill="#FFF" d="M615.125 597.383S518.546 449.096 506.719 481.69c-11.827 32.594-61.105-131.047-110.716-126.601-84.82 7.601-163.41 13.29-252.041 16.588-15.917.592-33.228-11.412-36.908-42.619-14.53-123.235-31.678-302.891-47.058-481.524-2.828-32.845 23.041-69.646 70.892-70.091 112.027-1.042 349.193-14.511 455.264-10.36 34.205 1.339 62.292 34.624 51.881 63.068C596.826-57.262 923.151 9.427 923.151 9.427s83.359 177.85 82.666 179.759c-.334.919-390.692 408.197-390.692 408.197z" style="display:block" transform="rotate(-145 914.887 215.665) scale(.5)"/><path id="af" fill="#FFF" d="M412.599 78.212c-6.132 3.04-7.257 9.111-7.45 10.036l-2.078 9.955c-.804 3.852 1.678 7.626 5.543 8.43l7.348 1.528c7.924 1.648 15.683-3.417 17.331-11.313.495-2.371 3.308-16.424 3.308-16.424s-16.193-6.083-24.002-2.212zm-14.702-3.734c3.902 5.915 3.593 9.268 3.279 11.761-.411 3.262-1.961 10.655-1.961 10.655-.863 4.124-4.939 6.767-9.102 5.904l-7.271-1.508c-8.179-1.696-13.434-9.638-11.738-17.74.661-3.158 3.897-16.189 3.897-16.189s19.186 1.492 22.896 7.117z" style="display:block" transform="translate(993.446 582.49)"/><path id="ag" fill="#FFF" d="M412.599 78.212c-6.132 3.04-7.257 9.111-7.45 10.036l-2.078 9.955c-.804 3.852 1.678 7.626 5.543 8.43l7.348 1.528c7.924 1.648 15.683-3.417 17.331-11.313.495-2.371 3.308-16.424 3.308-16.424s-16.193-6.083-24.002-2.212zm-14.702-3.734c3.902 5.915 3.593 9.268 3.279 11.761-.411 3.262-1.961 10.655-1.961 10.655-.863 4.124-4.939 6.767-9.102 5.904l-7.271-1.508c-8.179-1.696-13.434-9.638-11.738-17.74.661-3.158 3.897-16.189 3.897-16.189s19.186 1.492 22.896 7.117z" style="display:block" transform="translate(993.446 582.49)"/><path id="ai" fill="#FFF" d="M638.033-169.849c-41.207 112.587-110.385 302.331-170.99 469.348-11.827 32.594-21.429 51.144-71.04 55.59-84.82 7.601-163.41 13.29-252.041 16.588-15.917.592-33.228-11.412-36.908-42.619-14.53-123.235-31.678-302.891-47.058-481.524-2.828-32.845 23.041-69.646 70.892-70.091 112.027-1.042 349.193-14.511 455.264-10.36 34.205 1.339 62.292 34.624 51.881 63.068z" style="display:block" transform="rotate(-145 914.887 215.665) scale(.5)"/><path id="al" fill="#FFF" d="M615.125 597.383S518.546 449.096 506.719 481.69c-11.827 32.594-61.105-131.047-110.716-126.601-84.82 7.601-163.41 13.29-252.041 16.588-15.917.592-33.228-11.412-36.908-42.619-14.53-123.235-31.678-302.891-47.058-481.524-2.828-32.845 23.041-69.646 70.892-70.091 112.027-1.042 349.193-14.511 455.264-10.36 34.205 1.339 62.292 34.624 51.881 63.068C596.826-57.262 923.151 9.427 923.151 9.427s83.359 177.85 82.666 179.759c-.334.919-390.692 408.197-390.692 408.197z" style="display:block" transform="rotate(-145 914.887 215.665) scale(.5)"/><path id="aj" fill="#FFF" d="M412.599 78.212c-6.132 3.04-7.257 9.111-7.45 10.036l-2.078 9.955c-.804 3.852 1.678 7.626 5.543 8.43l7.348 1.528c7.924 1.648 15.683-3.417 17.331-11.313.495-2.371 3.308-16.424 3.308-16.424s-16.193-6.083-24.002-2.212zm-14.702-3.734c3.902 5.915 3.593 9.268 3.279 11.761-.411 3.262-1.961 10.655-1.961 10.655-.863 4.124-4.939 6.767-9.102 5.904l-7.271-1.508c-8.179-1.696-13.434-9.638-11.738-17.74.661-3.158 3.897-16.189 3.897-16.189s19.186 1.492 22.896 7.117z" style="display:block" transform="rotate(-5 7434.471 -10806.925)"/><path id="ak" fill="#FFF" d="M412.599 78.212c-6.132 3.04-7.257 9.111-7.45 10.036l-2.078 9.955c-.804 3.852 1.678 7.626 5.543 8.43l7.348 1.528c7.924 1.648 15.683-3.417 17.331-11.313.495-2.371 3.308-16.424 3.308-16.424s-16.193-6.083-24.002-2.212zm-14.702-3.734c3.902 5.915 3.593 9.268 3.279 11.761-.411 3.262-1.961 10.655-1.961 10.655-.863 4.124-4.939 6.767-9.102 5.904l-7.271-1.508c-8.179-1.696-13.434-9.638-11.738-17.74.661-3.158 3.897-16.189 3.897-16.189s19.186 1.492 22.896 7.117z" style="display:block" transform="rotate(-5 7434.471 -10806.925)"/><filter id="b" width="100%" height="100%" x="0%" y="0%" filterUnits="objectBoundingBox"><feComponentTransfer in="SourceGraphic"><feFuncA tableValues="1.0 0.0" type="table"/></feComponentTransfer></filter><filter id="f" width="100%" height="100%" x="0%" y="0%" filterUnits="objectBoundingBox"><feComponentTransfer in="SourceGraphic"><feFuncA tableValues="1.0 0.0" type="table"/></feComponentTransfer></filter><filter id="i" width="100%" height="100%" x="0%" y="0%" filterUnits="objectBoundingBox"><feComponentTransfer in="SourceGraphic"><feFuncA tableValues="1.0 0.0" type="table"/></feComponentTransfer></filter><filter id="m" width="100%" height="100%" x="0%" y="0%" filterUnits="objectBoundingBox"><feComponentTransfer in="SourceGraphic"><feFuncA tableValues="1.0 0.0" type="table"/></feComponentTransfer></filter><filter id="p" width="100%" height="100%" x="0%" y="0%" filterUnits="objectBoundingBox"><feComponentTransfer in="SourceGraphic"><feFuncA tableValues="1.0 0.0" type="table"/></feComponentTransfer></filter><filter id="t" width="100%" height="100%" x="0%" y="0%" filterUnits="objectBoundingBox"><feComponentTransfer in="SourceGraphic"><feFuncA tableValues="1.0 0.0" type="table"/></feComponentTransfer></filter><g id="g" style="display:block"><path fill="#FFF" d="M1230.584 803.67C1279.75 769.375 824.5 949.5 897.22 898.474c14.192-9.958 309.445 207.2 331.04 219.606 36.92 21.212 659.74 8.42 696.987 32.488 6.69 4.322 21.337-112.796 13.894-98.96-29.391 54.642-285.89-12.858-330.821 64.717-3.453 5.96-145.156-143.233-152.065-140.645-9.625 3.604-21.59 2.904-33.072-4.979-46.183-31.7-147.183-94.2-189.437-126.32-13.625-10.359-15.583-32.046-3.162-40.71z"/><path fill-opacity="0" stroke="#9DEEC7" stroke-width="6.5" d="M1230.584 803.67C1279.75 769.375 824.5 949.5 897.22 898.474c14.192-9.958 309.445 207.2 331.04 219.606 36.92 21.212 659.74 8.42 696.987 32.488 6.69 4.322 21.337-112.796 13.894-98.96-29.391 54.642-285.89-12.858-330.821 64.717-3.453 5.96-145.156-143.233-152.065-140.645-9.625 3.604-21.59 2.904-33.072-4.979-46.183-31.7-147.183-94.2-189.437-126.32-13.625-10.359-15.583-32.046-3.162-40.71z"/></g><g id="d" style="display:block"><path fill="#DB8D74" d="M1486.56 848.357c-15.26 12.664-40.464 16.822-64.228 20.325-23.764 3.503-51.184 28.034-45.285 57.046 5.204 25.596 31.844 39.89 58.748 37.565 29.906-2.584 60.405-8.863 97.441-34.374 37.036-25.51 30.499-59.011 15.323-79.034-15.177-20.024-46.74-14.193-62-1.528z"/><path fill-opacity="0" stroke="#3D3D3D" stroke-width="2" d="M1486.56 848.357c-15.26 12.664-40.464 16.822-64.228 20.325-23.764 3.503-51.184 28.034-45.285 57.046 5.204 25.596 31.844 39.89 58.748 37.565 29.906-2.584 60.405-8.863 97.441-34.374 37.036-25.51 30.499-59.011 15.323-79.034-15.177-20.024-46.74-14.193-62-1.528z"/></g><g id="n" style="display:block"><path fill="#FFF" d="M1230.584 803.67C1279.75 769.375 824.5 949.5 897.22 898.474c14.192-9.958 309.445 207.2 331.04 219.606 36.92 21.212 659.74 8.42 696.987 32.488 6.69 4.322 21.337-112.796 13.894-98.96-29.391 54.642-285.89-12.858-330.821 64.717-3.453 5.96-145.156-143.233-152.065-140.645-9.625 3.604-21.59 2.904-33.072-4.979-46.183-31.7-147.183-94.2-189.437-126.32-13.625-10.359-15.583-32.046-3.162-40.71z"/><path fill-opacity="0" stroke="#9DEEC7" stroke-width="6.5" d="M1230.584 803.67C1279.75 769.375 824.5 949.5 897.22 898.474c14.192-9.958 309.445 207.2 331.04 219.606 36.92 21.212 659.74 8.42 696.987 32.488 6.69 4.322 21.337-112.796 13.894-98.96-29.391 54.642-285.89-12.858-330.821 64.717-3.453 5.96-145.156-143.233-152.065-140.645-9.625 3.604-21.59 2.904-33.072-4.979-46.183-31.7-147.183-94.2-189.437-126.32-13.625-10.359-15.583-32.046-3.162-40.71z"/></g><g id="k" style="display:block"><path fill="#DB8D74" d="M1481.172 843.712c-14.34 13.698-39.191 19.603-62.653 24.756-23.462 5.152-49.104 31.536-41.195 60.066 6.976 25.17 34.549 37.571 61.225 33.375 29.653-4.664 59.64-13.054 94.806-41.087 35.166-28.032 26.308-60.995 9.772-79.91-16.536-18.917-47.616-10.898-61.955 2.8z"/><path fill-opacity="0" stroke="#3D3D3D" stroke-width="2" d="M1481.172 843.712c-14.34 13.698-39.191 19.603-62.653 24.756-23.462 5.152-49.104 31.536-41.195 60.066 6.976 25.17 34.549 37.571 61.225 33.375 29.653-4.664 59.64-13.054 94.806-41.087 35.166-28.032 26.308-60.995 9.772-79.91-16.536-18.917-47.616-10.898-61.955 2.8z"/></g><g id="u" style="display:block"><path fill="#FFF" d="M1230.584 803.67C1279.75 769.375 824.5 949.5 897.22 898.474c14.192-9.958 309.445 207.2 331.04 219.606 36.92 21.212 659.74 8.42 696.987 32.488 6.69 4.322 21.337-112.796 13.894-98.96-29.391 54.642-285.89-12.858-330.821 64.717-3.453 5.96-145.156-143.233-152.065-140.645-9.625 3.604-21.59 2.904-33.072-4.979-46.183-31.7-147.183-94.2-189.437-126.32-13.625-10.359-15.583-32.046-3.162-40.71z"/><path fill-opacity="0" stroke="#9DEEC7" stroke-width="6.5" d="M1230.584 803.67C1279.75 769.375 824.5 949.5 897.22 898.474c14.192-9.958 309.445 207.2 331.04 219.606 36.92 21.212 659.74 8.42 696.987 32.488 6.69 4.322 21.337-112.796 13.894-98.96-29.391 54.642-285.89-12.858-330.821 64.717-3.453 5.96-145.156-143.233-152.065-140.645-9.625 3.604-21.59 2.904-33.072-4.979-46.183-31.7-147.183-94.2-189.437-126.32-13.625-10.359-15.583-32.046-3.162-40.71z"/></g><g id="r" style="display:block"><path fill="#DB8D74" d="M1496.5 854.5c-16.5 11-42 12.5-66 13.5s-53.834 22.53-51 52c2.5 26 27.5 43 54.5 43.5 30.012.556 61-2.5 100.5-24s36.5-55.5 23.5-77-45-19-61.5-8z"/><path fill-opacity="0" stroke="#3D3D3D" stroke-width="2" d="M1496.5 854.5c-16.5 11-42 12.5-66 13.5s-53.834 22.53-51 52c2.5 26 27.5 43 54.5 43.5 30.012.556 61-2.5 100.5-24s36.5-55.5 23.5-77-45-19-61.5-8z"/></g><linearGradient id="bj" x1="475" x2="566.067" y1="-110.003" y2="-38.825" gradientUnits="userSpaceOnUse" spreadMethod="pad"><stop offset="0%" stop-color="#FFA75F"/><stop offset="50%" stop-color="#FFB78B"/><stop offset="100%" stop-color="#FFC7B8"/></linearGradient><linearGradient id="bf" x1="475" x2="566.067" y1="-110.003" y2="-38.825" gradientUnits="userSpaceOnUse" spreadMethod="pad"><stop offset="0%" stop-color="#FFA75F"/><stop offset="50%" stop-color="#FFB78B"/><stop offset="100%" stop-color="#FFC7B8"/></linearGradient><linearGradient id="bb" x1="475" x2="566.067" y1="-110.003" y2="-38.825" gradientUnits="userSpaceOnUse" spreadMethod="pad"><stop offset="0%" stop-color="#FFA75F"/><stop offset="50%" stop-color="#FFB78B"/><stop offset="100%" stop-color="#FFC7B8"/></linearGradient></defs><g clip-path="url(#am)"><g clip-path="url(#au)" style="display:block" transform="matrix(-1 0 0 1 1916 -23.5)"><g style="display:block"><path fill="#58CC02" d="M1230.485 803.743c49.265-34.368 132.015-92.243 204.643-143.202 2.002-1.405 3.906-2.71 5.76-3.878 4.8-3.029 9.266-5.15 14.243-5.77 6.718-.835 14.365 1.067 25.027 7.176 36.967 21.181 70.905 41.494 108.168 65.572 4.658 3.01 6.174 7.172 6.757 10.689.983 5.927-.897 11.436-3.946 17.277-3.012 5.768-6.232 11.558-9.996 18.377C1550.5 825.5 1502 911.25 1472.57 961.824c-4.698 8.072-10.57 15.176-16.747 21.73-4.887 5.184-14.269 14.656-20.551 18.658-11.597 7.387-24.773 4.218-34.089-2.01C1359.001 972 1261.5 906.5 1219.247 875.38c-8.648-6.368-11.976-19.711-10.496-25.73 2.25-9.15 4.91-17.376 8.08-24.263 3.17-6.887 7.327-17.231 13.654-21.644z"/><path fill="none" stroke="#58CC02" stroke-width="6.5" d="M1230.485 803.743c49.265-34.368 132.015-92.243 204.643-143.202 2.002-1.405 3.906-2.71 5.76-3.878 4.8-3.029 9.266-5.15 14.243-5.77 6.718-.835 14.365 1.067 25.027 7.176 36.967 21.181 70.905 41.494 108.168 65.572 4.658 3.01 6.174 7.172 6.757 10.689.983 5.927-.897 11.436-3.946 17.277-3.012 5.768-6.232 11.558-9.996 18.377C1550.5 825.5 1502 911.25 1472.57 961.824c-4.698 8.072-10.57 15.176-16.747 21.73-4.887 5.184-14.269 14.656-20.551 18.658-11.597 7.387-24.773 4.218-34.089-2.01C1359.001 972 1261.5 906.5 1219.247 875.38c-8.648-6.368-11.976-19.711-10.496-25.73 2.25-9.15 4.91-17.376 8.08-24.263 3.17-6.887 7.327-17.231 13.654-21.644z"/><path fill="#FFF" d="M1230.584 803.67c49.166-34.295 131.916-92.17 204.637-143.195 14.192-9.958 23.444-14.802 45.039-2.395 36.92 21.212 70.74 41.42 107.987 65.488 6.69 4.322 10.337 14.203 2.894 28.04-29.391 54.642-73.89 133.142-118.821 210.717-8.262 14.263-29.411 21.917-49.137 8.376-46.183-31.7-147.183-94.2-189.437-126.32-13.625-10.359-15.583-32.046-3.162-40.71z"/><path fill="none" stroke="#9DEEC7" stroke-width="6.5" d="M1230.584 803.67c49.166-34.295 131.916-92.17 204.637-143.195 14.192-9.958 23.444-14.802 45.039-2.395 36.92 21.212 70.74 41.42 107.987 65.488 6.69 4.322 10.337 14.203 2.894 28.04-29.391 54.642-73.89 133.142-118.821 210.717-8.262 14.263-29.411 21.917-49.137 8.376-46.183-31.7-147.183-94.2-189.437-126.32-13.625-10.359-15.583-32.046-3.162-40.71z"/></g><g mask="url(#av)" style="display:block"><g clip-path="url(#aw)"><path fill="#A175F9" d="M313.521 147.266a4.996 4.996 0 0 1-2.476-6.589l35.505-79.229c12.52-26.807 39.038-43.041 67.437-37.268 27.928 5.677 46.166 30.165 46.598 59.638l2.639 84.3a5.001 5.001 0 0 1-4.581 5.139c-10.243.872-36.172 2.236-68.29-2.346-33.359-4.759-65.34-18.373-76.832-23.645z" style="display:block" transform="rotate(-2 17467.06 -27716.914)"/><g style="display:block"><path fill="#A570FF" d="M1338.56 765.362c3.198-6.777 13.658-9.569 20.434-6.37 6.777 3.198 12.601 14.32 9.402 21.097 0 0-7.154 18.487-13.46 29.564-5.548 9.741-13.563 20.817-13.563 20.817-6.31 7.193-11.287 9.677-18.064 6.478-6.776-3.199-9.678-11.286-6.478-18.064 0 0 6.428-13.255 10.75-23.898 4.32-10.643 10.979-29.624 10.979-29.624z"/><path fill="#593F86" d="M1338.56 765.362s8.94-30.22 12.04-56.55l36.238 6.945c-1.242 25.693-17.723 62.777-17.723 62.777-3.064 1.446-13.544 3.84-20.4.603-6.296-2.971-9.374-10.707-10.155-13.775z"/><path fill="#FFC6B7" d="M1388.285 763.901c-1.1 5.437-6.4 8.952-11.836 7.85-5.436-1.1-8.951-6.399-7.85-11.835 1.1-5.436 6.4-8.95 11.836-7.85 5.436 1.101 8.951 6.4 7.85 11.835z"/><path fill="#593F86" d="m1371.338 706.12-52.203 20.217c-12.317 4.77-10.883 22.639 2.036 25.384l78.033 16.582c12.958 2.754 21.522-13.076 12.128-22.416l-39.994-39.768z"/><path fill="#FFC6B7" d="M1364.087 736.69c-6.095-5.788-8.692-9.736-13.36-10.68-4.581-.928-9.055 1.43-11.01 5.447 5 1.083 17.181 3.689 24.37 5.233z"/></g><path fill="#FFC6B7" d="m450.219 91.603 4.291.88c6.08 1.246 9.998 7.024 8.752 12.907-1.246 5.883-7.186 9.642-13.266 8.396l-4.291-.879c-6.08-1.246-9.999-7.024-8.752-12.907 1.247-5.883 7.186-9.643 13.266-8.397zm-33.5-59.289c24.256 5.058 40.846 27.56 38.541 52.277l-5.116 39.92c-2.524 13.181-12.859 21.445-25.152 20.885-12.066-.55-19.554-1.305-35.019-2.624-15.465-1.319-26.56-9.131-26.56-9.131-12.999-2.711-21.339-15.466-18.628-28.489a24.11 24.11 0 0 1 .936-3.302l13.566-37.444c8.519-23.515 32.991-37.189 57.432-32.092z" style="display:block" transform="rotate(2 -15619.475 28436.48)"/><path fill="#FFF" d="M412.599 78.212c-6.132 3.04-7.257 9.111-7.45 10.036l-2.078 9.955c-.804 3.852 1.678 7.626 5.543 8.43l7.348 1.528c7.924 1.648 15.683-3.417 17.331-11.313.495-2.371 3.308-16.424 3.308-16.424s-16.193-6.083-24.002-2.212zm-14.702-3.734c3.902 5.915 3.593 9.268 3.279 11.761-.411 3.262-1.961 10.655-1.961 10.655-.863 4.124-4.939 6.767-9.102 5.904l-7.271-1.508c-8.179-1.696-13.434-9.638-11.738-17.74.661-3.158 3.897-16.189 3.897-16.189s19.186 1.492 22.896 7.117z" style="display:block" transform="translate(993.446 582.49)"/><g mask="url(#ax)" style="display:block"><path fill="#3D3D3D" d="M1427.571 674.395c-.835 3.771-4.193 5.962-7.704 5.218-3.51-.744-5.708-4.292-5.012-7.91.696-3.62 1.9-9.772 1.9-9.772l12.948 2.075s-1.297 6.618-2.132 10.39zm-33.024-5.888c-.743 4.28-4.193 5.962-7.704 5.218-3.51-.744-5.649-4.519-5.012-7.91.653-3.477.66-2.688.66-2.688l12.504 2.142s.295-1.042-.448 3.238z"/></g><g mask="url(#ay)" style="display:block"><path fill="#A570FF" d="m1433.962 660.105-2.554 16.345-70.392-12.937 3.703-17.553 69.243 14.145z"/></g><path fill="#FFC6B7" d="M392.238 134.582a27.84 27.84 0 0 1 .557-7.168c3.172-15.155 18.137-24.871 33.426-21.7 4.08.846 7.06 2.538 9.233 4.487 5.034 4.515-43.121 26.188-43.216 24.381z" style="display:block" transform="translate(993.446 582.49)"/><path fill="#EE9583" d="M404.942 119.172c5.947-7.414 11.462-9.776 16.117-6.04.85.682.993 1.938.319 2.804a1.942 1.942 0 0 1-2.757.333c-2.469-1.981-5.872-.523-10.64 5.42a1.942 1.942 0 0 1-2.762.291 2.018 2.018 0 0 1-.277-2.808zm-7.456-4.456c3.258.67 6.439-1.349 7.106-4.511.667-3.162-3.654-11.853-3.654-11.853l-.905.784c-2.011 1.78-6.716 6.163-7.239 8.641-.667 3.162 1.434 6.268 4.692 6.939z" style="display:block" transform="rotate(2 -15784.73 28850.68)"/><path fill="#A570FF" d="M317.487 151.331c14.939-40.032 33.041-127.467 89.887-122.518.776.068 3.902.908 4.362 1.656 6.887 11.194-19.389 95.858-23.92 117.252-.547 2.583-2.975 3.862-5.614 3.912-18.096.341-50.479.01-64.715-.302zM428.486 34.052c17.261 6.726 29.208 23.333 28.949 47.181l-24.047-5.143c-19.329-4.022-23.631-20.569-23.492-40.632l-7.272-6.423c8.329-.365 18.488 2.143 25.862 5.017z" style="display:block" transform="rotate(2 -15619.475 28436.48)"/></g></g><g mask="url(#az)" style="display:block"><g clip-path="url(#aA)"><path fill="#E6A000" d="M0-59.292c32.723 0 59.292 26.569 59.292 59.292S32.723 59.292 0 59.292-59.292 32.723-59.292 0-32.723-59.292 0-59.292z" style="display:block" transform="matrix(.38973 .12663 -.0618 .19021 1493.225 685.26)"/><g style="display:block"><path fill="#FFC700" d="M1479.054 669.314c9.753-2.106 24.531 2.008 33.007 9.188 8.475 7.18 7.44 14.708-2.315 16.814-9.753 2.106-24.531-2.007-33.007-9.188-8.475-7.18-7.439-14.708 2.315-16.814z"/><path fill="#FFE700" d="M1506.04 676.633a28.068 28.068 0 0 1 3.133 2.286c1.821 1.542 3.122 3.104 3.912 4.604.165.313-.197.356-.652.456-4.6 1.008-22.786 4.933-25.267 5.457-.34.072-.928.213-1.803-.188-2.292-1.052-4.25-2.435-5.976-3.898a19.501 19.501 0 0 1-2.538-2.554c-.142-.175-.415-.45.61-.672 4.43-.957 20.728-4.438 26.91-5.773.817-.177 1.297.045 1.672.282zm-24.7-5.462c5.383-1.163 12.583-.078 18.92 2.509.45.184 1.581.769.25 1.082-1.333.313-21.493 4.574-23.888 5.091-1.403.303-1.725-.438-1.795-.671-1.11-3.721 1.123-6.847 6.512-8.011z"/></g><path fill="#E6A000" d="M0-59.292c32.723 0 59.292 26.569 59.292 59.292S32.723 59.292 0 59.292-59.292 32.723-59.292 0-32.723-59.292 0-59.292z" style="display:block" transform="matrix(.4813 .24524 -.13166 .2584 1514.025 734.632)"/><g style="display:block"><path fill="#FFC700" d="M1499.117 709.767c13.434-1.32 31.865 7.007 41.167 18.597 9.302 11.59 5.953 22.057-7.48 23.377-13.434 1.32-31.865-7.007-41.167-18.597-9.302-11.59-5.953-22.057 7.48-23.377z"/><path fill="#FFE700" d="M1532.827 724.7a34.675 34.675 0 0 1 3.535 3.763c1.998 2.49 3.304 4.919 3.953 7.173.136.47-.354.47-.98.534-6.34.643-31.386 3.102-34.8 3.422-.468.043-1.283.143-2.332-.573-2.75-1.876-4.97-4.164-6.865-6.525-1.101-1.373-1.992-2.727-2.679-4.043-.142-.271-.43-.707.982-.846 6.102-.6 28.537-2.752 37.053-3.588 1.125-.111 1.7.283 2.133.682zm-31.18-11.92c7.415-.728 16.636 2.03 24.322 6.762.546.337 1.887 1.356.046 1.572-1.841.217-29.584 2.815-32.882 3.14-1.932.19-2.162-.914-2.193-1.255-.487-5.449 3.284-9.489 10.706-10.218z"/></g><path fill="#E6A000" d="M0-59.292c32.723 0 59.292 26.569 59.292 59.292S32.723 59.292 0 59.292-59.292 32.723-59.292 0-32.723-59.292 0-59.292z" style="display:block" transform="matrix(.6486 .38971 -.22476 .37406 1500.135 794.898)"/><g style="display:block"><path fill="#FFC700" d="M1482.475 757.503c19.29-1.18 44.282 12.171 55.821 29.82 11.54 17.65 5.256 32.914-14.034 34.095-19.29 1.18-44.282-12.171-55.821-29.82-11.54-17.65-5.256-32.914 14.034-34.095z"/><path fill="#FFE700" d="M1528.227 781.484a46.427 46.427 0 0 1 4.478 5.761c2.48 3.791 3.983 7.453 4.578 10.82.125.703-.572.674-1.472.732-9.107.587-45.072 2.785-49.973 3.061-.67.038-1.843.139-3.23-.98-3.636-2.926-6.46-6.434-8.81-10.029-1.367-2.09-2.437-4.14-3.222-6.123-.162-.409-.509-1.069 1.52-1.193 8.761-.536 40.97-2.43 53.198-3.18 1.616-.098 2.376.517 2.933 1.131zm-42.595-19.386c10.65-.651 23.358 3.948 33.597 11.378.727.528 2.484 2.11-.165 2.324-2.648.214-42.467 2.464-47.203 2.754-2.775.17-2.942-1.473-2.935-1.979.099-8.074 6.049-13.825 16.706-14.477z"/></g><path fill="#E6A000" d="M0-59.292c32.723 0 59.292 26.569 59.292 59.292S32.723 59.292 0 59.292-59.292 32.723-59.292 0-32.723-59.292 0-59.292z" style="display:block" transform="matrix(.68536 .4799 -.32116 .45866 1420.606 831.336)"/><g style="display:block"><path fill="#FFC700" d="M1406.454 784.874c22.482-1.404 49.164 15.042 59.597 36.735 10.432 21.692.663 40.415-21.819 41.82-22.482 1.404-49.164-15.043-59.597-36.735-10.432-21.692-.663-40.416 21.819-41.82z"/><path fill="#FFE700" d="M1455.376 814.418a47.284 47.284 0 0 1 4.228 7.082c2.24 4.66 3.377 9.157 3.511 13.292.028.863-.772.826-1.822.895-10.618.7-52.534 3.315-58.242 3.643-.78.044-2.152.165-3.572-1.21-3.72-3.602-6.406-7.914-8.531-12.332-1.236-2.57-2.135-5.088-2.716-7.525-.12-.502-.412-1.313 1.952-1.46 10.21-.638 47.738-2.89 61.989-3.78 1.883-.118 2.66.639 3.203 1.395zm-46.03-23.896c12.412-.776 26.34 4.9 36.949 14.044.754.65 2.524 2.596-.572 2.852-3.095.257-49.473 2.927-54.992 3.272-3.235.202-3.157-1.815-3.067-2.436 1.442-9.91 9.261-16.956 21.683-17.732z"/></g><path fill="#E6A000" d="M0-59.292c32.723 0 59.292 26.569 59.292 59.292S32.723 59.292 0 59.292-59.292 32.723-59.292 0-32.723-59.292 0-59.292z" style="display:block" transform="matrix(.81915 .57358 -.43018 .61436 1303.57 843.462)"/><g style="display:block"><path fill="#FFC700" d="M1289.189 784.783c28.033-3.338 60.076 16.103 71.57 43.422 11.493 27.32-1.915 52.173-29.948 55.511-28.033 3.339-60.076-16.102-71.57-43.422-11.493-27.32 1.915-52.173 29.948-55.511z"/><path fill="#FFE700" d="M1347.981 819.638a53.725 53.725 0 0 1 4.773 8.863c2.47 5.869 3.577 11.603 3.463 16.936-.023 1.113-1.016 1.12-2.325 1.28-13.243 1.624-65.508 7.844-72.623 8.654-.973.11-2.685.36-4.357-1.32-4.378-4.402-7.424-9.79-9.765-15.355-1.362-3.236-2.308-6.43-2.865-9.538-.115-.64-.423-1.669 2.524-2.02 12.733-1.516 59.52-6.969 77.29-9.085 2.347-.28 3.261.645 3.885 1.585zm-55.58-27.754c15.475-1.843 32.399 4.545 44.963 15.641.892.788 2.96 3.183-.904 3.724-3.864.542-61.677 7.135-68.56 7.954-4.032.48-3.8-2.13-3.645-2.939 2.463-12.903 12.658-22.536 28.146-24.38z"/></g></g></g><path fill="none" stroke="#9DEEC7" stroke-width="13" d="M396.003 355.089c-84.82 7.601-163.41 13.29-252.041 16.588-15.917.592-33.228-11.412-36.908-42.619-14.53-123.235-31.678-302.891-47.058-481.524-2.828-32.845 23.041-69.646 70.892-70.091 112.027-1.042 349.193-14.511 455.264-10.36" style="display:block" transform="rotate(-145 914.887 215.665) scale(.5)"/></g><g clip-path="url(#aM)" style="display:block" transform="matrix(-1 0 0 1 1976 -43.5)"><g style="display:block"><path fill="none" stroke="#CC348D" stroke-linecap="round" stroke-miterlimit="10" stroke-width="23" d="M1744.542 392.37c-3.102-14.842 27.782-19.049 47.533-4.026"/><path fill="#C6775C" d="M1759.384 389.266c1.714 8.197-3.542 16.23-11.74 17.944-8.196 1.714-16.23-3.542-17.943-11.738-1.713-8.197 3.542-16.231 11.739-17.945 8.196-1.713 16.23 3.543 17.944 11.74z"/><path fill="#5EC6FF" d="M1782.868 417.85c-1.867 9.716-16.5 15.07-32.681 11.96-16.182-3.111-27.785-13.51-25.918-23.226 1.867-9.715 15.294-27.79 34.997-24.003 19.846 3.815 25.47 25.553 23.602 35.269z"/><path fill="#0084C2" d="M1782.868 417.85c-1.867 9.716-16.5 15.07-32.681 11.96-16.182-3.111-27.785-13.51-25.918-23.226 1.867-9.715 16.5-15.07 32.681-11.96 16.182 3.112 27.786 13.51 25.918 23.226z"/><path fill="#FFCC76" d="M1756.95 394.625c-9.179-1.765-17.857-.803-23.991 2.131.585 5.753-1.064 10.364-1.438 12.038-.029.119-.09.232-.12.353-1.453 6.35 1.86 12.768 8.117 14.543 4.533 1.286 9.19-.276 12.092-3.608a13.143 13.143 0 0 0 6.386 4.073c7.02 1.991 14.327-2.085 16.318-9.106.967-3.411 2.647-7.9 3.69-10.007-4.65-4.791-12.156-8.706-21.054-10.417z"/></g><g mask="url(#aN)" style="display:block"><path fill="none" stroke="#FFCC76" stroke-linecap="round" stroke-miterlimit="10" stroke-width="4.148" d="M1796.719 314.048c-14.878 6.25-35.062 29.305-25.899 33.98 9.163 4.677 18.79-25.517 42.959-19.1m-18.9 8.86c-11.48 6.241-19.505 20.374-30.867 40.804m32.857-34.966c-5.078 5.132-7.727 7.733-13.805 17.335-6.079 9.603-13.755 18.916-17.167 31.232"/></g><path fill="#0084C2" d="M732.862-124.382c4.759-25.473 29.266-42.264 54.739-37.505s42.265 29.265 37.506 54.738-29.266 42.265-54.739 37.506-42.265-29.266-37.506-54.739z" style="display:block" transform="rotate(5.904 -4381.894 10125.201)"/><g mask="url(#aO)" style="display:block"><path fill="#006AAD" d="M1847.26 507.416c-17.136-1.875-34.103-4.827-48.952-21.668l-6.979.285c17.77 21.51 38.354 25.003 49.84 25.686a47.202 47.202 0 0 0 6.09-4.303z"/><path fill="#C6775C" d="M1788.33 414.293c4.819-15.908 21.576-24.94 37.513-20.224 16.01 4.74 25.15 21.56 20.412 37.571l-10.34 34.939c-1.177 3.975-4.124 7.19-7.997 8.668-15.956 6.084-28.444 10.247-33.158 11.78a3.209 3.209 0 0 1-3.454-.963c-7.94-9.358-12.551-19.98-14.596-25.479-.9-2.422-.873-5.061-.123-7.535l11.742-38.757z"/><path fill="none" stroke="#FFF" stroke-linecap="round" stroke-width="20.813" d="m1786.397 456.097 2.8-8.356m19.857 15.6 1.806-6.107"/><path fill="none" stroke="#3D3D3D" stroke-linecap="round" stroke-width="9.4" d="M1807.462 460.67s-1.168 2.469-1.428 4.987m-18.364-12.676s-.592 3.269-2.032 5.497"/><path fill="#FFF" d="M1782.123 456.262c1.694.915 2.476 3.55 1.435 5.2-4.313 7.162-8.946-8.02-1.435-5.2zm19.263 8.136c2.028.636 3.316 2.652 2.443 4.81-2.77 4.611-6.226-4.305-2.443-4.81z"/><path fill="#C6775C" d="M1789.97 445.228a6.295 6.295 0 1 1 12.014 3.755 6.295 6.295 0 0 1-12.014-3.755z"/></g><path fill="none" stroke="#3D3D3D" stroke-linecap="round" stroke-width="46.998" d="M806.508-160.321c-17.756 5.031-37.78.251-40.643-7.859" style="display:block" transform="translate(1028.193 585.396)"/><path fill="#FFF" d="m756.151-159.828.792-1.802a5.805 5.805 0 0 1 10.63 4.672l-.792 1.802a5.805 5.805 0 0 1-10.63-4.672z" style="display:block" transform="translate(1028.318 585.52)"/><path fill="#CC348D" d="M745.232-224.137c-.304-28.44 22.505-51.741 50.945-52.045 28.44-.304 51.741 22.506 52.045 50.946.304 28.44-22.505 51.74-50.945 52.044-28.44.304-51.741-22.505-52.045-50.945z" style="display:block" transform="rotate(-5.904 7015.66 -9855.074)"/><path fill="none" stroke="#CC348D" stroke-linecap="round" stroke-linejoin="round" stroke-width="23" d="M831.009-200.758s8.44 3.918 7.27 8.95c-2.822 12.124-25.13 15.5-25.13 15.5" style="display:block" transform="rotate(-5.904 7015.66 -9855.074)"/><g mask="url(#aP)" style="display:block"><path fill="#0084C2" d="M1754.282 360.394c1.014-24.927 15.442-53.786 57.01-58.404 41.567-4.618 81.395 14.264 75.583 39.9-4.525 19.964-24.258 32.116-70.832 33.023-44.427.864-61.868-11.889-61.76-14.519z"/><path fill="none" stroke="#00448E" stroke-width="11" d="M1754.282 360.394c1.014-24.927 15.442-53.786 57.01-58.404 41.567-4.618 81.395 14.264 75.583 39.9-4.525 19.964-24.258 32.116-70.832 33.023-44.427.864-61.868-11.889-61.76-14.519z"/></g><g style="display:block"><path fill="none" stroke="#0084C2" stroke-linecap="round" stroke-linejoin="round" stroke-width="20" d="M1812.072 325.777s-34.973-10.46-45.789-18.574c1.846-12.05 18.115-29.508 26.281-40.546"/><path fill="none" stroke="#CC348D" stroke-linecap="round" stroke-linejoin="round" stroke-width="14" d="M1812.99 257.364c-2.419-5.495-7.247-11.658-11.264-14.38"/></g><g style="display:block"><path fill="none" stroke="#0084C2" stroke-linecap="round" stroke-linejoin="round" stroke-width="20" d="M1812.307 325.693s-55.13 10.102-95.025-22.908"/><path fill="none" stroke="#CC348D" stroke-linecap="round" stroke-linejoin="round" stroke-width="14" d="M1703.522 283.13c-2.761 2.017-9.637 7.973-13.72 12.956"/></g><g style="display:block"><path fill="none" stroke="#DAAF83" stroke-linecap="round" stroke-linejoin="round" stroke-width="5" d="m1872.706 420.826-59.783 3.158m57.282 5.988-56.889-.747"/><path fill="none" stroke="#C6775C" stroke-linecap="round" stroke-linejoin="round" stroke-width="9" d="m1840.543 423.515-8.761 7.906"/><path fill="#C6775C" d="m1842.758 427.65 4.367-4.044a8.535 8.535 0 0 0 .465-12.062l-3.578-3.863a8.534 8.534 0 0 0-12.061-.464l-4.367 4.045a8.534 8.534 0 0 0-.464 12.06l3.577 3.864a8.536 8.536 0 0 0 12.061.464z"/></g></g><g clip-path="url(#bc)" style="display:block" transform="matrix(-1 0 0 1 1916 -23.5)"><g style="display:block"><path fill="none" stroke="#FFC6B7" stroke-linecap="round" stroke-linejoin="round" stroke-width="12" d="M1457.133 594.75c.42-5.26-5.275-10.215-10.2-13.94m-9.238 7.382c6.874 1.789 14.099 5.051 17.67 9.25m-19.503 4.054c10.286-1.058 16.578 2.982 20.167 5.55m-5.145 11.46s6.255-7.637 14.955-12.103"/><path fill="none" stroke="#FFC6B7" stroke-linecap="round" stroke-linejoin="round" stroke-width="36" d="M1486.546 593.159c-10.312.985-15.14 1.638-23.937 3.683"/><path fill="none" stroke="#33E3FF" stroke-linecap="round" stroke-linejoin="round" stroke-width="36" d="M1504.68 592.057c-8.972-.373-20.317 1.123-29.237 2.538"/></g><path fill="#33E3FF" d="M630.054-116.72c8.046-29.607-33.008-61.078-61.338-44.995-12.628 4.768-40.445 25.165-40.445 25.165-12.705 8.799 84.396 95.703 89.705 70.186 0 0 7.618-39.769 12.078-50.356z" style="display:block" transform="rotate(-4.071 9151.59 -13496.413)"/><path fill="none" stroke="#393939" stroke-linecap="round" stroke-width="27" d="m683.25 34.5 4.25 3.5" style="display:block" transform="rotate(-13.781 3374.347 -3707.762)"/><path fill="none" stroke="#393939" stroke-linecap="round" stroke-linejoin="round" stroke-width="23" d="m613.75 94-8.25 3.75" style="display:block" transform="rotate(-17.508 2860.991 -2808.343)"/><path fill="#FFC7B8" d="M552.811-154.957c-14.873-8.982-34.962-11.237-52.179-1.891l-28.256 15.339a51.11 51.11 0 0 0-25.616 34.316l-7.98 37.63C434.57-49.714 440-30 458.986-17.428 477.972-4.856 510.5 12 528.501 43.852c6.897 12.204 42.974 11.603 54.934 7.15l38.691-9.376A38.335 38.335 0 0 0 651.93 8.839l6.319-51.72c-.568-6.318-6.973-19.296-11.519-26.102C621-107.5 590-132.5 552.811-154.957z" style="display:block" transform="rotate(-6.013 6533.832 -9071.623)"/><path fill="#EE9583" d="M523.147-6.062c2.236 3.145 5.699 3.51 8.324 1.644 2.625-1.866 3.418-5.255 1.182-8.401-2.236-3.145-9.483-4.798-10.202-4.287-.718.51-1.54 7.899.696 11.044z" style="display:block" transform="rotate(-6.013 6529.371 -9070.042)"/><g style="display:block"><path fill="#FFF" d="M1484.873 552.377c-7.881-4.671-20.051-3.19-25.844 3.145-4.785 5.234-3.498 12.014 3.012 15.872l9.757 5.783c7.881 4.67 20.051 3.189 25.844-3.147 4.785-5.233 3.499-12.014-3.011-15.872l-9.758-5.781zm30.59-23.317c-7.85-4.654-19.064-2.61-24.82 4.523-5.554 6.883-3.943 15.957 3.636 20.447l8.925 5.29c7.85 4.653 19.066 2.607 24.82-4.524 5.556-6.885 3.943-15.956-3.636-20.447l-8.925-5.29z"/><path fill="#FFC7B8" d="M1530.605 538.427c-5.311 4.46-11.335 17.395-12.838 26.71l16.598-13.943c.96-6.114 1.55-17.228-3.76-12.767z"/><path fill="#EE9583" d="M1526.745 557.244a2.223 2.223 0 0 0-1.793 2.58c.402 2.228.402 4.414-.229 6.493-.624 2.055-1.91 4.147-4.3 6.145a2.219 2.219 0 0 0-.279 3.126 2.22 2.22 0 0 0 3.128.281c2.999-2.507 4.804-5.312 5.7-8.262.89-2.926.84-5.855.352-8.57a2.221 2.221 0 0 0-2.58-1.793z"/><path fill="#4B4B4B" d="M1501.314 541.786a4.246 4.246 0 0 0 2.071 3.199c2.005 1.188 4.57.564 5.73-1.392.117-.2.216-.403.296-.613l4.932 2.782c3.533 1.993 4.328 6.16 1.779 9.32-2.56 3.173-7.527 4.125-11.078 2.122l-5.997-3.382c-3.533-1.993-4.33-6.16-1.781-9.319 1.039-1.288 2.473-2.21 4.048-2.717zm-15.513 15.718c.17.084.335.176.498.273l5.167 3.06c3.814 2.26 4.608 6.22 1.868 9.313-2.384 2.69-7.516 3.344-10.836 1.378l-7.423-4.4c-3.166-1.874-3.826-5.16-1.551-7.727 1.013-1.143 2.445-1.975 4.045-2.462a4.503 4.503 0 0 0 2.071 2.68c2.064 1.222 4.653.669 5.782-1.236a3.75 3.75 0 0 0 .379-.88z"/></g><g mask="url(#bd)" style="display:block"><g clip-path="url(#be)" transform="rotate(.035 -1848.802 300.064) scale(1.00759)"><g style="display:block"><path fill="#FFC7B8" d="M1531.072 472.95c5.547 1.538 10.722-2.436 11.558-8.872.835-6.437-2.985-12.9-8.532-14.438-5.547-1.538-10.722 2.436-11.557 8.872-.836 6.437 2.985 12.9 8.531 14.438z"/><path fill="#0084C2" d="M1476.51 610.578s56.633 59.035 75.738 52.288l84.852-53.299c15.31-5.119 16.846-112.947 8.034-122.726l-46.156-33.193-.192-.139-6.05-4.349-7.1 111.687-109.126 49.731z"/><path fill="#33E3FF" d="M1599.227 458.011c-6.193-5.901-32.26-23.432-32.26-23.432a89.37 89.37 0 0 1 2.122 5.235c15.96 43.123 4.178 106.142 2.463 109.162-15.069 26.531-97.039 53.239-102.455 51.97l17.197 15.416c27.382 2.193 90.182-24.41 102.765-40.754 10.975-14.252 13.347-94.227 10.168-117.597z"/></g><path fill="url(#bf)" d="M542.287-73.808a20.443 20.443 0 0 0-21.744-1.686l-66.346 34.981c-4.69 2.473-5.503 8.833-1.52 12.333 4.619 4.057 18.803 15.086 20.93 16.441 2.539 1.618 3.641 4.492 3.329 7.164L455.999 7.558C439.513-4.27 412.084-46.23 416.293-66.078c0 0 3.246-69.461 16.083-76.429 0 0 91.517-46.369 107.436-34.95l29.674 16.915 1.147.654-.456 92.437a8.424 8.424 0 0 1-7.201 8.168c-.631.092-20.689-14.525-20.689-14.525z" style="display:block" transform="rotate(-6.1 6395.181 -8836.617)"/></g></g><path fill="#FF9500" d="M470.773-93.62c13.021-.06 20.525-10.827 20.464-24.064-.06-13.237-7.661-23.931-20.682-23.87-13.022.062-21.726 10.833-21.666 24.07.06 13.237 8.863 23.926 21.884 23.865zm-4.913 35.525c14.72-.685 26.057-13.576 25.32-28.792-.736-15.218-13.267-27-27.987-26.314-14.72.686-26.058 13.576-25.32 28.792.736 15.218 13.267 26.998 27.987 26.314z" style="display:block" transform="rotate(23.772 -448 2509.472)"/><path fill="#33E3FF" d="M637.81-65.136C633.75-56 626.831-54.6 622.786-55.983c-5.465-1.15-9.63-7.729-9.02-16.257 1.234-17.26 7.984-33.01 13.266-43.535 4.773-9.512 15.718-11.975 22.54-8.794 6.779 3.161 12.82 11.1 7.698 20.625-6.02 11.194-15.4 29.672-19.46 38.808z" style="display:block" transform="rotate(-4.071 9198.336 -13511.38)"/><g style="display:block"><path fill="#FFC6B7" d="M1633.386 452.844c-5.583-8.21-15.745-10.857-25.285-4.733-8.407 5.397-11.563 15.85-5.48 24.462 5.551 7.858 15.77 10.597 25.07 4.485 9.616-6.314 11.278-16.004 5.695-24.214z"/><path fill="none" stroke="#EE9583" stroke-linecap="round" stroke-width="3.796" d="M1615.973 457.715c3.349 1.54 6.516 5.33 6.34 7.929"/><path fill="none" stroke="#FFC6B7" stroke-linecap="round" stroke-linejoin="round" stroke-width="12" d="M1609.82 452.51c.052-4.26-1.389-8.007-1.53-12.004m18.479-5.799c-5.21 2.987-9.02 10.293-8.891 13.928m20.644-7.274c-3.857 2.066-12.397 8.156-12.47 14.24m17.083-1.167c-4.61-.214-10.248 4.613-12.229 9.485"/></g></g><g clip-path="url(#bn)" style="display:block" transform="matrix(-1 0 0 1 1976 -43.5)"><path fill="#58CC02" d="M303.202-41.464c15.252 94.999-16.572 140.035-80.655 155.537-84.448 20.428-144.155-35.09-168.05-85.71-18.098-38.339-23.966-76.865-23.92-117.16-.157-43.844 11.82-87.995 50.372-103.39 17.556-7.01 35.65-7.751 49.068-1.815 20.795 9.2 29.342 14.224 37.061 18.258 4.232 2.211 127.3 79.317 136.124 134.28zm15-4c15.252 94.999-31.572 144.035-95.655 159.537-84.448 20.428-134.794-43.146-151.05-96.71C16-165.5 159.359-179.779 167.078-175.744a21.636 21.636 0 0 0 13.788 2.145c13.9-2.467 30.541-12.233 54.354-20.829 30.503-11.006 70.147 5.743 71.86 44.992 0 0 2.298 49.009 11.122 103.972z" style="display:block" transform="rotate(-2.347 15676.61 -25087.471)"/><path fill="#58CC02" d="M194.4-10.921c41.197 33.255 100.112 36.257 145.734 6.363 45.621-29.893 66.603-85.246 52.867-136.495-2.857-10.667-15.283-15.388-24.539-9.323L195.78-37.227c-9.256 6.065-9.954 19.384-1.38 26.306z" style="display:block" transform="rotate(13.065 -1786.973 4793.337)"/><path fill="#58CC02" d="M198.976.515c-26.37 45.909-80.206 70.027-133.554 58.669C12.074 47.826-27.518 3.817-33.258-48.93c-1.195-10.977 8.679-19.874 19.504-17.569L188.17-23.511C198.993-21.206 204.464-9.04 198.976.515z" style="display:block" transform="rotate(-17.759 2533.193 -3035.071)"/><path fill="none" stroke="#F49000" stroke-linecap="round" stroke-linejoin="round" stroke-width="35" d="M256.25 102.5 260 74.75" style="display:block" transform="rotate(6.841 -4218.564 9157.18)"/><path fill="none" stroke="#F49000" stroke-linecap="round" stroke-linejoin="round" stroke-width="35" d="m138 147-27-7.75" style="display:block" transform="rotate(16.029 -1477.573 4121.822)"/><g mask="url(#bp)" style="display:block"><path fill="#89E219" d="M1235.599 635.074c-1.138 8.742-7.904 16.004-16.86 17.84-8.954 1.836-17.872-2.211-22.126-9.847-.885-1.589.071-3.602 1.888-3.974l34.8-5.069c1.817-.357 2.534-.769 2.298 1.05zm-58.548 11.735c-2.334 8.484-10.032 14.663-19.15 15.147-9.118.483-17.385-4.853-20.54-13.046-.657-1.704.567-3.553 2.417-3.651l34.51-1.829c1.85-.097 3.248 1.614 2.763 3.38zm35.517 20.5c-1.538 8.348-8.63 15.003-17.661 16.339-9.032 1.332-17.755-2.986-21.654-10.532-.81-1.568.237-3.458 2.069-3.728l33.271-5.745c1.832-.282 4.295 1.928 3.975 3.665zm23.508-68.29c-22.288 1.123-42.153-11.147-51.752-29.76-8.183.383-14.115.648-17.786.824-6.523.314-11.865.576-16.016.787-5.777 19.434-18.683 33.136-36.152 34.32-20.58 1.394-40.955-22.65-43.14-52.814-1.65-22.773-1.822-34.016-.106-46.244 1.842-13.122 6.819-22.545 14.337-29.327.523-11.897 9.834-22.168 14.23-22.268 2.472-.056 2.13.88 1.837 14.207 4.465-17.774 13.753-23.228 17.852-26.275 5.132-3.815 11.167-5.687 11.39 2.536.107 3.913 2.948 46.81 27.73 47.831 2.34.097 3.84.107 6.791-.172 15.389-1.454 44.683-33.767 56.092-47.065 7.098-8.274 11.613-6.69 13.359-4.042 3.968 6.013 5.384 12.304 4.459 18.682l9.533-11.874c1.877-2.326 5.475-2.17 7.118.32 4.275 6.474 6.021 14.121 5.239 21.6 14.745 9.206 24.893 25.235 25.842 43.907l1.37 27.08c1.537 30.357-21.845 56.217-52.227 57.747z"/></g><g style="display:block"><path fill="#F49000" d="M1191.228 567.897c-.537-10.608-9.57-18.772-20.179-18.235-10.01.505-17.953 8.615-18.251 18.634l-.26 25.905c-.356 11.933 9.547 21.632 21.47 21.029 11.279-.57 19.959-10.175 19.389-21.453l-2.17-25.88z"/><path fill="#B16900" d="M1184.403 569.838c.277-8.203-6.52-14.888-14.718-14.474-7.275.368-13.055 6.247-13.301 13.526l-.343 24.787c-.278 8.204 6.52 14.887 14.717 14.473 7.275-.368 13.055-6.246 13.302-13.526l.343-24.786z"/><path fill="#FFB8D1" d="M1184.638 577.673c-.168.004-.337.01-.506.02-12.636.638-22.363 11.4-21.724 24.037.08 1.584.32 3.122.702 4.6a13.93 13.93 0 0 0 7.653 1.82c7.275-.368 13.055-6.246 13.302-13.526l.573-16.951z"/><path fill="#FFC200" d="M1139.806 571.185c-.138.74.294 1.46 1 1.723l10.209.499 41.283-3.422c.925-.15 1.53-1.06 1.25-1.954-3.675-11.797-14.963-20.693-27.874-20.041-13.067.66-23.567 10.875-25.868 23.195z"/><path fill="#FFDE00" d="M1169.4 559.544c2.091.823 4.395-.28 5.171-2.36.777-2.079-.232-4.54-2.36-5.171-4.153-1.233-9.278-1.207-13.39.584-2.035.887-3.016 3.208-2.162 5.257.855 2.048 3.194 2.982 5.257 2.162 1.77-.704 5.392-1.294 7.484-.472z"/></g><g style="display:block"><path fill="#FFF" d="M1269.802 539.097c1.068 21.133-15.197 39.13-36.33 40.199-21.133 1.068-39.13-15.196-40.2-36.33l-1.088-21.524c-1.069-21.133 15.197-39.13 36.33-40.198 21.133-1.07 39.13 15.196 40.199 36.329l1.089 21.524zm-129.557 6.55c1.068 21.133-11.202 38.93-27.408 39.749-16.203.82-30.208-15.648-31.277-36.78l-1.089-21.525c-1.068-21.133 11.204-38.928 27.407-39.747 16.206-.82 30.209 15.647 31.278 36.78l1.089 21.523z"/><path fill="#4B4B4B" d="M1105.553 542.08c.68 9.896 7.577 17.484 15.401 16.94 7.824-.536 13.614-8.995 12.933-18.89l-1.326-19.11c-12.555 6.382-20.246-10.533-11.722-16.743-.658-.275-2.558-.418-3.68-.196-9.652 1.852-13.66 11.435-12.623 23.272.824 9.486 1.017 14.728 1.017 14.728zm95.073-4.382c.25 9.912 8.495 17.75 18.407 17.5s17.75-8.496 17.5-18.408l-.485-19.154c-13.548 5.265-19.063-9.704-14.85-17.234a18.318 18.318 0 0 0-3.568-.265 17.86 17.86 0 0 0-5.457.991c-9.838 4.001-12.065 14.976-11.923 21.807.142 6.831.376 14.763.376 14.763z"/><path fill="#8EDF00" d="M1108.154 479.995c-25.994 1.699-30.332 15.15-31.416 23.245-2.285 17.059 2.282-.974 2.282-.974 16.931-25.494 47.993-24.197 65.033 12.68 4.392-20.36-.377 1.17-2.495-13.482-2.118-14.65-14.883-22.679-33.404-21.469zm-20.579 107.524c6.077 2.99 8.298 7.255 22.848 10.205 14.55 2.95 10.909 2.979 13.156 3.348-3.735-2.13-29.678-10.312-36.004-13.553zm141.442-110.815c-30.947-.52-41.301 20.195-40.885 37.428.416 17.232.362 1.255.362 1.255 8.032-48.91 60.527-48.04 81.432-16.8-.067-8.048 2.612 21.63 1.114 6.833-1.498-14.797-19.972-28.345-42.023-28.716zm-5.736 115.09c-12.62-1.964-16.616-2.742 7.283 1.906 19.244 3.742 31.855-5.007 41.001-16.094-5.612 6.362-25.929 15.72-48.284 14.189z"/></g></g><g clip-path="url(#bC)" style="display:block" transform="matrix(-1 0 0 1 1976 -43.5)"><path fill="#FFCBA3" d="M220.795-328.298c5.915 0 10.71 4.846 10.71 10.825 0 5.98-4.795 10.826-10.71 10.826-5.915 0-10.71-4.847-10.71-10.826s4.795-10.825 10.71-10.825z" style="display:block" transform="rotate(1 -26932.77 57845.653)"/><path fill="#FFB100" d="M233.285-320.332c-6.243-4.535-11.406-2.53-14.273.865-2.867 3.395-3.813 9.835 1.97 14.369 5.78 4.534 18.174 17.882 26.515 28.367 3.2 4.023 10.646 5.921 16.225.942 5.58-4.98 3.603-12.504.712-16.661-5.845-8.407-24.907-23.347-31.15-27.882z" style="display:block" transform="rotate(1 -26933.021 57874.3)"/><path fill="#3D3D3D" d="M173.214-316.585c0 9.562-7.752 17.314-17.314 17.314-9.562 0-17.314-7.752-17.314-17.314 0-9.562 7.752-17.315 17.314-17.315 9.562 0 17.314 7.753 17.314 17.315zm-19.792-8.647c-13.511-11.937-14.787-32.568-2.85-46.079l22.652-26.694c11.937-13.512 32.567-14.788 46.079-2.85 14.326 12.657 14.76 34.86.939 48.067l-.997.596a94.767 94.767 0 0 0-10.584 11.98l-7.422 9.988c-11.403 15.344-33.491 17.649-47.817 4.992z" style="display:block" transform="rotate(1 -33220.5 59395.14)"/><path fill="#E89665" d="M170.119-403.653c2.087.944 3.005 3.418 2.051 5.527-.954 2.109-6.986 5.386-6.986 5.386s-1.522-6.695-.568-8.804c.954-2.108 3.417-3.052 5.503-2.109z" style="display:block" transform="rotate(1.399 -23425.62 42349.467)"/><path fill="#FFCBA3" d="M219.585-404.105c-21.544-12.439-49.093-5.057-61.532 16.488-12.439 21.545-5.057 49.093 16.487 61.532l29.192 16.854 45.045-78.02-29.192-16.854z" style="display:block" transform="rotate(1 -33194.835 59313.381)"/><g style="display:block"><path fill="#FFB100" d="M1225.493 207.211c-20.617 27.11-22.508 90.858 46.034 115.005l36.205-56.873 34.671-61.33c-52.345-29.991-90.738-31.215-116.91 3.198z"/><path fill="#FFF" d="M1262.94 202.638c2.06 2.105 1.765 5.732-.658 8.103-2.423 2.371-6.055 2.587-8.115.483-2.06-2.105-1.765-5.731.658-8.102 2.423-2.371 6.055-2.588 8.115-.484zm-32.91-8.703c24.958 14.585 47.798-7.24 37.508-12.32-3.967.173-9.57 2.045-14.34 3.533-9.696-1.187-18.07 3.612-23.167 8.787zm-15.72 30.533c19.104 10.904 44.265-20.28 23.453-32.294-5.083 2.975-18.792 14.862-23.452 32.294z"/><path fill="#FF9500" d="M1293.489 256.34c-19.636 32.68-31.707 60.07-22.386 65.67 9.32 5.601 29.567-17.702 49.203-50.382 19.636-32.68 31.227-62.363 21.906-67.964-9.32-5.6-29.087 19.996-48.723 52.676zm-40.241-71.195c16.816 1.195 40.558 10.275 56.642 18.766a7.99 7.99 0 0 0 8.165-.435c2.908-1.934 5.29-5.796 9.745-7.36-30.305-15.01-54.753-18.745-74.552-10.971zm-35.382 35.945c-10.483 26.872-6.462 67.887 33.33 91.697-3.8-14.831 12.291-42.574 18.215-56.281 1.645-3.806.124-8.237-3.52-10.213-9.898-5.365-32.903-19.157-48.025-25.203z"/></g><path fill="#FFCBA3" d="M208.585-408.855c-7.835-3.645-36.835-2.645-50.532 21.238-12.377 21.58-5.057 49.093 16.487 61.532 0 0 2.21 1.585 4.192 2.604C165-376.5 201.25-403.25 213.777-407.001c-1.277-.999-5.192-1.854-5.192-1.854z" style="display:block" transform="rotate(1 -33220.25 59366.488)"/><g style="display:block"><path fill="#9F9F9F" d="M1191.107 210.685c-6.147 16.855-2.1 36.712 11.263 48.926 4.321-18.057 3.165-38.818-11.263-48.926z"/><path fill="#B23232" d="m1221.806 200.715 1.094 3.38c1.03 3.186-.84 6.514-4.176 7.434-3.337.92-6.879-.919-7.91-4.104l-1.094-3.381c-1.03-3.186.84-6.514 4.176-7.434 3.337-.92 6.879.918 7.91 4.105z"/></g><g mask="url(#bD)" style="display:block"><path fill="#F14C4C" d="M1215.507 206.583a6.5 6.5 0 0 1 5.26 3.973 5.998 5.998 0 0 1-10.493-1.538l-.18-.507a6.493 6.493 0 0 1 5.413-1.928z"/></g><g mask="url(#bE)" style="display:block"><path fill="#FFF" d="M1197.89 181.815c2.666-4.62 5.905-7.742 7.232-6.975.05.028 1.74 1.03 1.787 1.058 1.267.73.01 5.202-2.56 9.652-2.568 4.45-5.813 7.775-7.079 7.044l-1.805-1.028c-1.327-.766-.242-5.133 2.425-9.751zm-12.07 21.037c2.667-4.618 5.905-7.74 7.233-6.974.049.028 1.74 1.03 1.788 1.057 1.266.73.008 5.203-2.56 9.653-2.57 4.449-5.814 7.774-7.08 7.043l-1.804-1.028c-1.328-.766-.243-5.132 2.424-9.75z"/><path fill="#4B4B4B" d="M1187.616 200.867c1.277-2.213 2.829-3.709 3.465-3.342.023.014 1.235.637 1.257.65.607.35.004 2.494-1.226 4.625-1.23 2.13-2.785 3.724-3.391 3.374-.023-.014-1.243-.622-1.266-.636 2.01-2.42 2.66-5 1.161-4.671zm9.415-16.472c1.277-2.212 2.828-3.709 3.465-3.341.023.013 1.234.636 1.257.65.607.35.004 2.493-1.226 4.624s-2.785 3.725-3.392 3.375c-.023-.014-1.243-.622-1.266-.636 2.01-2.42 2.66-5 1.162-4.672z"/><path fill="none" stroke="#E89665" stroke-linecap="round" stroke-linejoin="round" stroke-width="3" d="m-50.353 5.574 8.892 4.251-8.985 3.287m74.943-6.57L17.39 8.811l8.055 3.69" transform="matrix(.43479 -.75307 .2165 .125 1199.716 183.97)"/></g><path fill="#FFCBA3" d="M192.432-315.03c7.213 0 13.06 5.91 13.06 13.202 0 7.291-5.847 13.201-13.06 13.201s-13.06-5.91-13.06-13.201 5.847-13.201 13.06-13.201z" style="display:block" transform="rotate(1 -30289.382 55094.669)"/><path fill="#FFB100" d="M204.728-313.852c-9.361-.175-11.337 6.063-11.55 11.446-.213 5.383.993 11.764 9.894 12.257 8.902.493 36.056 3.958 48.846 5.42 5.223.589 12.225-2.495 13.241-10.088 1.017-7.593-5.538-12.124-10.558-13.428-10.152-2.636-40.512-5.432-49.873-5.607z" style="display:block" transform="rotate(1 -30318.53 55151.711)"/><path fill="none" stroke="#FF9500" stroke-linecap="round" stroke-linejoin="round" stroke-width="12" d="M370.75-299.25s6.423 2.56 12 6.25" style="display:block" transform="rotate(8.839 -2696.028 6193.78)"/><path fill="none" stroke="#FF9500" stroke-linecap="round" stroke-linejoin="round" stroke-width="12" d="M349-258.75s4.827 6.506 8 12.25" style="display:block" transform="rotate(-13.894 3049.276 -3943.78)"/><g style="display:block"><path fill="none" stroke="#00BDFF" stroke-linecap="round" stroke-linejoin="round" stroke-width="7" d="m1168.722 160.018 6.455-3.463m-.301 13.533 5.587-3.293m-6.159 9.916c9.654 5.671 15.395-4.714 20.952-.905"/><path fill="#00BDFF" d="M1122.297 191.209c-2.07.547-3.877-1.505-3.072-3.49l2.231-5.506 6.585 7.478-5.744 1.518zm-4.703-8.736c-1.812-1.14-1.544-3.862.456-4.627l5.549-2.122-.977 9.915-5.028-3.166zm25.145 13.096c-9.689 2.663-19.702-3.032-22.365-12.72-2.664-9.69 3.032-19.702 12.72-22.365 0 0 11.465-3.06 19.546-7.102 8.08-4.04 19.816-2.17 24.896 6.498 5.08 8.67 1.794 19.6-6.5 24.895-8.293 5.295-28.297 10.794-28.297 10.794z"/><path fill="#FFF" d="M1141.582 187.442a6.173 6.173 0 0 1-7.935-3.638l-2.564-6.904a6.173 6.173 0 0 1 11.573-4.297l2.564 6.903a6.173 6.173 0 0 1-3.638 7.936z"/><path fill="#FFA3A3" d="M1135.805 177.976c.574.243.824.918.548 1.476l-.754 1.528c-.42.852-1.655.787-1.986-.103l-.814-2.193c-.33-.89.563-1.745 1.438-1.374l1.568.666z"/><path fill="#00729A" d="M1131.869 183.509a2.274 2.274 0 1 0-4.484-.763 2.274 2.274 0 0 0 4.484.763zm-1.342-3.744a2.273 2.273 0 1 0-4.484-.76 2.273 2.273 0 1 0 4.484.76z"/></g></g><g clip-path="url(#bJ)" style="display:block" transform="matrix(-1 0 0 1 1916 -23.5)"><g style="display:block"><path fill="#4CC5FF" d="M1601.24 781.723c4.068-4.551 11.055-4.943 15.606-.874l17.244 15.417c4.551 4.07 4.943 11.055.874 15.606l-3.924 4.39c-8.127 8.83-14.75 4.57-25.857-2.901-10.346-7.969-16.526-16.824-9.163-25.638l5.22-6z"/><path fill="#1CB0F6" d="M1613.037 799.436c-7.654-6.5-9.263-13.714-5.706-17.956 5.565-6.64 19.277-21.213 28.464-28.37 6.119-4.766 27.138-13.825 49.282-19.128 9.783-2.34 19.61 3.69 21.954 13.473 2.343 9.782-3.69 19.611-13.471 21.954-12.015 2.88-31.883 10.842-35.743 12.764-2.976 2.827-15.77 14.468-22.67 22.725-4.453 5.328-15.198.406-22.11-5.462z"/><path fill="none" stroke="#FF4B4B" stroke-linecap="round" stroke-width="12.767" d="M1580.21 814.436c7.993 6.448 20.173 4.63 20.173 4.63"/></g><g style="display:block"><path fill="#A46648" d="m1659.545 670.416 25.388 38.532c3.91 5.411 11.468 6.627 16.88 2.717 5.41-3.91 6.628-11.466 2.717-16.878l-30.227-33.779a8.751 8.751 0 1 0-14.758 9.408z"/><path fill="none" stroke="#A46648" stroke-linecap="round" stroke-linejoin="round" stroke-width="7.5" d="m1650.422 659.46 9.576 4.485m-2.918-16.579 1.165 10.39m6.22-11.28-1.13 12.175m8.002-7.291-3.05 6.973"/></g><g style="display:block"><path fill="#3D3D3D" d="m1722.615 645.062 25.512-19.176c9.318-6.993 22.54-5.11 29.533 4.209l6.783 9.037c6.993 9.318 5.108 22.54-4.21 29.534l-8.082 6.065c-9.317 6.994-22.54 5.109-29.533-4.209l-20.003-25.46zm9.423-5.629-14.108 45.321-27.306-9.129c-9.956-3.593-15.116-14.577-11.524-24.534l3.485-9.657c3.592-9.957 14.576-15.116 24.532-11.523l24.921 9.522zm25.548 19.819c1.288 10.507-50.48 16.846-51.768 6.34l-4.132-33.737c-1.286-10.507 6.187-20.068 16.695-21.354l13.719-1.68c10.508-1.287 20.068 6.187 21.355 16.693l4.131 33.738z"/><path fill="#A46648" d="m1736.835 713.729-37.244-12.013c-8.327-2.686-13.39-11.111-11.852-19.725l4.298-24.08a14.638 14.638 0 0 1 10.546-11.25l27.635-7.44a19.867 19.867 0 0 1 18.424 4.39l11.51 13.283a26.795 26.795 0 0 1 5.188 25.971l-6.482 19.576c-2.963 9.2-12.824 14.255-22.023 11.288z"/><path fill="#FDB02A" d="m1764.178 686.376 1.162-3.51a26.795 26.795 0 0 0-5.187-25.972l-11.51-13.282a19.867 19.867 0 0 0-18.425-4.391l-14.348 3.863c11.462 2.65 33.499 11.192 48.308 43.292zm-48.308-43.292-13.287 3.578a14.638 14.638 0 0 0-10.546 11.25l-1.48 8.29c8.08-11.906 25.313-23.118 25.313-23.118zm.697-1.444c.237.692-.243 1.368-.968 1.464-6.51.866-13.99-2.702-15.583-10.308-.15-.715.237-1.424.967-1.463 9.675-.52 13.802 5.12 15.584 10.307zm-.59 1.387a1.102 1.102 0 0 1-1.462-.968c-.31-4.182.204-12.244 10.307-15.583a1.106 1.106 0 0 1 1.464.968c.556 7.652-2.982 13.062-10.309 15.583z"/><path fill="#A46648" d="M1762.8 676.526a8.151 8.151 0 0 1-10.494 4.776 8.151 8.151 0 0 1-4.775-10.494 8.152 8.152 0 0 1 10.493-4.776 8.152 8.152 0 0 1 4.776 10.494z"/></g><g style="display:block"><path fill="#FFF" d="M1714.005 661.277c.226-3.945 3.673-7.36 7.564-7.492 3.892-.134 6.649 3.07 6.046 7.028l-1.173 7.72c-.532 3.497-3.653 6.338-7.092 6.454-3.438.117-6.441-1.322-6.242-4.808l.897-8.902z"/><path fill="#A46648" d="M1712.227 673.552c1.596-2.643 11.516-6.217 15.702-5.474l-3.949 9.47c-6.19 1.468-11.753-3.996-11.753-3.996z"/><path fill="none" stroke="#86401F" stroke-linecap="round" stroke-width="4" d="M1697.723 668.436c4.212-3.3 8.598.41 8.598.41"/><path fill="#86401F" d="M1710.65 669.244c.1.012 2.053 3.364 1.9 4.695a2.425 2.425 0 0 1-4.819-.555c.154-1.33 2.818-4.151 2.918-4.14zm-.377 7.13-2.095.18a2.497 2.497 0 0 1-.425-4.975l2.095-.18a2.498 2.498 0 0 1 .425 4.975z"/><path fill="#A41414" d="M1725.611 679.405c-1.397 5.974-11.324 10.616-18.647 6.595-2.164-1.188-1.44-4.195.863-5.082 3.155-1.215 5.915-3.129 8.443-5.678 2.528-2.55 5.806-3.316 7.916-.936 1.105 1.247 1.93 2.943 1.425 5.1z"/><path fill="none" stroke="#3D3D3D" stroke-linecap="round" stroke-width="6.095" d="m1721.987 660.448-.284 4.967"/><path fill="#E64340" d="M1715.224 683.96c-1.442-2.31.025-5.827 3.275-7.856 2.132-1.33 4.5-1.69 6.285-1.13.79 1.155 1.244 2.612.877 4.399-.756 3.674-4.278 5.708-5.87 6.453-1.956.166-3.695-.469-4.567-1.867z"/><path fill="#E7E7E7" d="M1720.475 676.875a5.596 5.596 0 0 1-9.227 2.385c1.824-1.072 2.829-1.74 5.072-4.052 2.243-2.312 5.807-3.316 7.916-.935.292.33.562.69.79 1.082-.332.355-1.463 2.3-4.55 1.52z"/></g><path fill="#FDB02A" d="m749.545 173.4-6.236 3.947c-11.545 7.307-26.828 3.871-34.135-7.675l-3.946-6.236c-7.229-11.421-3.83-26.538 7.59-33.766 14.99-9.487 34.832-5.027 44.319 9.963 7.228 11.421 3.829 26.539-7.592 33.767zm-2.502-9.683-33.434-7.517 4.609-20.499c2.076-9.233 11.242-15.035 20.475-12.959 9.232 2.076 15.034 11.242 12.958 20.475l-4.608 20.5z" style="display:block" transform="rotate(4.354 -6279.247 13308.635)"/><path fill="#1CB0F6" d="M740.472 155.971c10.32 11.635 9.254 29.433-2.381 39.753s-29.433 9.254-39.753-2.381-9.254-29.433 2.381-39.753 29.433-9.254 39.753 2.381z" style="display:block" transform="rotate(4.354 -6285.823 13308.385)"/><g style="display:block"><path fill="none" stroke="#A46648" stroke-linecap="round" stroke-linejoin="round" stroke-width="13" d="m1760.753 731.828 6.013-24.418m3.23 24.846 14.251-13.61"/><path fill="#A46648" d="m1726.976 727.869 13.87 24.138 30.67-23.6s-30.868-11.736-32.647-12.08c-3.009-1.073-6.522-1.588-9.285.333a8.586 8.586 0 0 0-2.608 11.209zm52.988 14.197-.034-.412c-.488-5.67-2.988-10.683-6.687-14.297-4.097-4.005-9.664-6.293-15.59-5.862-11.277.82-19.15 11.113-18.129 22.992l.035.409c1.02 11.879 10.567 21.127 21.845 20.304 11.277-.822 19.586-11.179 18.56-23.134z"/><path fill="none" stroke="#86401F" stroke-linecap="round" stroke-width="4" d="m1746.275 735.75 12.954-5.528c3.285-1.402 7.195.052 8.733 3.246 0 0 0 0 0 0 1.538 3.194.122 6.92-3.163 8.322l-12.954 5.527"/></g><g style="display:block"><path fill="#1CB0F6" d="M1695.978 769.45c-8.908.846-17.587-4.412-20.708-13.23-1.167-3.294-2.667-7.258-4.58-11.298-6.023 4.904-8.848 11.11-13.941 17.23-7.043 8.461-19.612 9.611-28.074 2.568-8.46-7.043-9.612-19.614-2.569-28.074.3-.36 8.705-8.924 16.991-17.265 16.384-16.492 25.524-23.013 35.388-21.859a20.711 20.711 0 0 1 13.29 7.035c11.286 12.664 17.48 27.922 21.164 38.328 3.683 10.401-1.764 21.82-12.167 25.504-1.584.56-3.194.91-4.794 1.061z"/><path fill="none" stroke="#0395DB" stroke-linecap="round" stroke-linejoin="round" stroke-width="4" d="m1657.623 758.574 12.47-15.293s6.446 21.612 14.308 23.754"/><path fill="#5EC6FF" d="M1647.35 775.95c-3.075 3.676-13.053.393-22.288-7.33-9.235-7.725-14.228-16.967-11.153-20.643.792-.948 10.112-11.898 12.06-14.12 3.138-3.577 13.133-.013 21.995 7.234 8.862 7.248 14.133 16.605 11.114 20.629-3.018 4.023-11.315 13.736-11.728 14.23z"/><path fill="none" stroke="#33B4F7" stroke-linecap="round" stroke-width="4.078" d="M1619.31 749.122c4.286.7 9.927 3.555 15.248 8.04 5.32 4.487 9.087 9.566 10.5 13.672"/><path fill="none" stroke="#FF4B4B" stroke-linecap="round" stroke-width="13.049" d="M1606.846 755.384c6.151 7.683 15.991 13.942 15.991 13.942"/></g></g><g clip-path="url(#bN)" style="display:block" transform="matrix(-1 0 0 1 1916 -23.5)"><path fill="#FFB7E3" d="M467.017-248.933s-21.285-1.263-52.276-3.165c-15.682-.962-21.741 12.598-21.142 21.885.599 9.287 9.345 23.196 24.422 18.787 30.521-8.926 62.293-17.748 62.293-17.748l-13.297-19.759z" style="display:block" transform="rotate(14.575 -1267.632 3855.797)"/><g style="display:block"><path fill="#FFB7E3" d="M1394.362 303.478c-29.546-9.592-52.583-15.398-62.745-18.421-10.162-3.024-22.066 12.373-24.048 27.591-1.996 15.326 6.065 27.643 16.987 28.507 11.096.879 31.026 3.381 62.745 2.511 15.632-.429 20.33-8.993 22.008-16.308 1.678-7.315.038-19.016-14.947-23.88z"/><path fill="#FF9BDE" d="M1337.979 319.424c-4.433 11.825-13.881 18.591-21.102 15.112-7.22-3.48-9.48-15.887-5.046-27.712s13.882-18.592 21.102-15.112c7.22 3.479 9.479 15.886 5.046 27.712z"/></g><path fill="none" stroke="#FF7AD5" stroke-linecap="round" stroke-linejoin="round" stroke-width="25.456" d="M332.027-229.743c4-8.5 8.114-18.822 12.928-28.325" style="display:block" transform="rotate(-13.136 3141.514 -4203.68)"/><path fill="none" stroke="#FF86D0" stroke-linecap="round" stroke-linejoin="round" stroke-width="15" d="M502.881-191.052c.376-4.651-.544-10.655-2.324-15.564" style="display:block" transform="rotate(-25.292 2276.763 -2083.623)"/><path fill="#FFB7E3" d="M477.637-216.167c-7.613 5.833-.003.004-.006.006 0 0-18.631 14.661-50.031 23.985-8.308 2.467-15.805 6.766-15.948 15.431-.142 8.665 6.764 15.82 15.43 15.948 28.668.422 61.793-23.578 70.09-30.808 7.129-6.212 7.901-15.269 2.504-22.049-5.394-6.777-14.426-8.346-22.039-2.513z" style="display:block" transform="rotate(12.579 -1640.743 4493.282)"/><path fill="#FFB7E3" d="M457.463-227.353c-11.621 5.879-32.272 15.702-43.279 41.145-11.007 25.443 20.779 26.539 27.111 14.999 7.705-14.041 24.272-24.118 27.134-26.05 17.148-11.237 6.297-41.165-10.961-30.097" style="display:block" transform="rotate(8.587 -2834.329 6547.578)"/><path fill="#FFB3E6" d="M528.609-252.517c-1.324-2.088 4.65-9.711 4.65-9.711l14.956 10.268a12.758 12.758 0 0 0 7.223 2.241l22.195.002c4.776 0 7.827 5.094 5.572 9.305l-2.776 5.185a32.342 32.342 0 0 0-3.439 10.258c-.964 6.153-7.198 9.99-13.126 8.079l-5.291-1.706a42.078 42.078 0 0 1-26.151-24.402l-3.813-9.519z" style="display:block" transform="rotate(-5.246 7281.3 -10627.396)"/><g style="display:block"><path fill="#FFB7E3" d="M1470.91 303.463c16.878 15.084 18.33 40.992 3.245 57.87-7.305 8.172-20.652 14.036-33.534 10.277-13.805-4.027-22.15-16.838-27.557-27.182-3.229-6.175-5.3-11.609-6.13-18.388-.83-6.78 1.266-14.253 6.108-19.332 15.621-16.381 40.993-18.33 57.869-3.245z"/><path fill="#FF86D0" d="M1483.846 341.763a41.1 41.1 0 0 0 .675-5.628l-5.918-16.041-17.548-23.157a40.495 40.495 0 0 0-3.747-1.542l-5.891-1.606-.067-.014c-8.574 6.873-10.859 20.46-4.36 31.35 7.644 12.812 20.563 20.42 36.856 16.638z"/><path fill="#FFB3E6" d="M1459.667 331.752a.666.666 0 0 1 .978.036l2.554 2.976a.666.666 0 0 1-.035.907l-4.685 4.668a.666.666 0 0 1-.942-.002l-2.743-2.755a.667.667 0 0 1 0-.94l4.873-4.89zm-11.459-23.67a.666.666 0 0 1 .867.453l1.027 3.785a.666.666 0 0 1-.422.803l-6.236 2.2a.666.666 0 0 1-.85-.407l-1.293-3.666a.667.667 0 0 1 .405-.85l6.502-2.319z"/><path fill="#1CB0F6" d="M1460.088 289.102c27.488-.363 38.84 23.479 30.527 42.462l-1.063 2.428c-3.698 8.444-23.628 10.717-35.252-7.986-13.699-20.045-4.572-36.333 5.788-36.904z"/></g><path fill="none" stroke="#1CB0F6" stroke-linecap="round" stroke-linejoin="round" stroke-width="21" d="M505.793-354.77s-6.942 25.958-9.266 38.247c-2.356 12.462-4.778 36.007-4.778 36.007" style="display:block" transform="rotate(4.594 -6132.704 12194.788)"/><path fill="none" stroke="#1CB0F6" stroke-linecap="round" stroke-width="21" d="M510.4-244.433s24.77 4.414 37.154 7.16c14.807 3.286 44.367 10.923 44.367 10.923" style="display:block" transform="rotate(4.594 -6132.704 12194.788)"/><path fill="#E18E70" d="M495.071-354.738c-6.063 6.951-16.614 7.671-23.566 1.608-6.952-6.064-7.672-16.615-1.609-23.566 6.064-6.952 16.615-7.673 23.567-1.609 6.952 6.064 7.671 16.615 1.608 23.567z" style="display:block" transform="rotate(4.594 -6135.53 12518.78)"/><path fill="#E18E70" d="M592.492-232.902c-7.193-7.197-7.191-18.862.006-26.057 7.198-7.194 18.865-7.191 26.058.006 7.194 7.198 7.191 18.864-.007 26.058-7.198 7.194-18.862 7.19-26.057-.007z" style="display:block" transform="rotate(4.594 -6385.69 12012.388)"/><path fill="#FFB3E6" d="M606.933-297.91c-9.289 35.122-45.292 56.063-80.414 46.774-35.122-9.29-56.063-45.292-46.774-80.414 9.289-35.122 45.292-56.063 80.414-46.774 35.122 9.289 56.063 45.292 46.774 80.414z" style="display:block" transform="rotate(12.465 -1611.402 4455.25)"/><g style="display:block"><path fill="#E18E70" d="M1529.917 238.39c14.679 16.842 12.743 42.717-4.325 57.794-17.068 15.077-39.43 14.914-54.11-1.928-14.678-16.842-16.114-43.984.954-59.061 17.067-15.078 42.803-13.647 57.481 3.195z"/><path fill="#A70000" d="M1473.304 289.253c-1.74 3.334.243 10.725 13.325 15.64 13.083 4.913 17.665-3.667 18.68-5.611 1.015-1.946 4.135-10.521-2.318-12.945-5.058-1.9-12.85 2.04-19.13-.319-6.28-2.359-8.816-.099-10.557 3.235z"/><path fill="#FFF" d="M1502.992 286.338c-2.393-.9-5.397-.49-8.564-.06-3.529.478-7.26.985-10.568-.259-2.91-1.092-5.014-1.194-6.61-.656 1.269 2.121 4.078 4.573 8.398 6.589 7.796 3.574 15.702 2.795 20.599.327.75-3.015-1.244-5.186-3.255-5.941z"/><path fill="#9E4D31" d="M1485.001 270.53c.078.144-1.679 5.674-3.407 7.415-1.697 1.714-5.372.381-6.399-1.514-1.027-1.895-.096-3.186 1.916-4.113 1.555-1.063 7.813-1.931 7.89-1.788zm-9.689-18.81c-.718-.157-1.022-.904-.678-1.668.344-.764 1.208-1.256 1.926-1.098 5.15 1.129 7.552 4.38 8.412 7.963.847 3.524.21 7.356-.646 9.85-.267.775-1.093 1.343-1.845 1.268-.75-.076-1.143-.767-.876-1.543.714-2.08 1.257-5.367.545-8.33-.698-2.905-2.595-5.512-6.838-6.442zm33.473 29.7c.376.704 1.299.991 2.06.642.762-.348 1.076-1.2.7-1.905-2.86-5.352-7.344-7.884-11.773-8.822-4.361-.923-8.638-.3-11.293.57-.802.263-1.22 1.077-.939 1.816.283.74 1.161 1.126 1.963.864 2.207-.724 5.882-1.26 9.575-.479 3.626.768 7.296 2.803 9.707 7.314z"/><path fill="#3B3B3B" d="M1550.848 269.192c.295-2.364-1.718-4.505-3.756-4.767-1.543.086-3.35-.636-5.42-2.14-3.399-2.328-3.14-25.93-27.108-36.746-9.178-4.613-24.604-4.733-27.737 1.734-6.226 12.864-2.859 36.552 24.424 48.43 25.554 11.536 36.438.891 39.597-6.511z"/></g></g><g clip-path="url(#bY)" style="display:block" transform="matrix(-1 0 0 1 1916 -23.5)"><g mask="url(#bZ)" style="display:block"><g clip-path="url(#ca)"><path fill="none" stroke="#3D3D3D" stroke-linecap="round" stroke-linejoin="round" stroke-width="24" d="M541.75 368c5.75 8.75 22.071 22.16 22.071 22.16s9.503.38 25.471-.07" style="display:block" transform="rotate(-10 4050.077 -4835.871)"/><path fill="#3D3D3D" d="M512.018 280.06c14.429 0 26.125 14.439 26.125 32.25s-11.352 31.792-25.781 31.792c-14.429 0-27.084-13.935-27.084-31.746s12.311-32.296 26.74-32.296zm43.423 7.966c27.555.062 53.428 14.596 49.161 35.812-4.533 22.538-19.548 27.499-42.525 28.246-51.772 1.682-68.584-64.197-6.636-64.058z" style="display:block" transform="rotate(-10 4056.122 -4887.942)"/><path fill="#DB8D74" d="M521.5 303c-16.5 11-42 12.5-66 13.5s-53.834 22.53-51 52c2.5 26 27.5 43 54.5 43.5 30.012.556 61-2.5 100.5-24s36.5-55.5 23.5-77-45-19-61.5-8z" style="display:block" transform="rotate(-10 4091.52 -4911.194)"/><g mask="url(#cb)" style="display:block"><path fill="#FFAADE" d="M1468.863 840.933c12.495-6.279-148.707-11.635-120.33 94.2 32.625 121.684 217.518-7.033 184.848 5.993-17.789 7.093-43.037 9.84-57.511 4.971a48.399 48.399 0 0 1-8.417-3.738 44.922 44.922 0 0 1-7.232-5.082c-7.56-6.52-14.39-16.458-18.886-28.206-9.198-24.035 9.239-58.946 27.528-68.138zm-25.218 11.164s-115.231-2.266-95.866 81.646c19.366 83.912 140.333 28.855 140.333 28.855s-61.548-.74-73.94-42.277c-12.173-40.795 29.473-68.224 29.473-68.224zm-33.848 27.4-3.34 6.2 11.424-1.754 2.955-6.346-11.04 1.9zm17.846-23.117s-96.335 12.742-76.822 77.335c19.512 64.593 117.831 33.45 117.831 33.45s-48.92-3.776-62.292-45.11c-11.591-35.836 21.283-65.675 21.283-65.675zm-14.255 61.3-9.32 3.73 3.178 8.257 8.853-4.396-2.711-7.592z"/><path fill="#A56641" d="M1443.645 852.097s-115.231-2.266-95.866 81.646c19.366 83.912 140.333 28.855 140.333 28.855s-61.548-.74-73.94-42.277c-12.173-40.795 29.473-68.224 29.473-68.224z"/><path fill="#2CE69B" d="m1409.797 879.498-3.34 6.2 11.424-1.755 2.955-6.346-11.04 1.9zm17.846-23.118s-96.335 12.742-76.822 77.335c19.512 64.593 117.831 33.45 117.831 33.45s-48.92-3.776-62.292-45.11c-11.591-35.836 21.283-65.675 21.283-65.675zm-14.255 61.3-9.32 3.73 3.178 8.257 8.853-4.396-2.711-7.592z"/></g><g mask="url(#cc)" style="display:block"><path fill="#3D3D3D" d="M1459.794 802.944c-17.88 4.422-21.207 26.09-19.311 40.214 1.897 14.136 6.172 29.375 22.174 35.692 16.795 6.63 34.48-7.095 32.736-37.25-1.258-21.76-17.72-43.078-35.599-38.656z"/></g><path fill="#3D3D3D" d="M557.75 265.5c16.983 0 30.75 13.711 30.75 30.625s-13.767 30.625-30.75 30.625S527 313.039 527 296.125s13.767-30.625 30.75-30.625z" style="display:block" transform="rotate(-10 4050.02 -4784.77)"/><path fill="#DB8D74" d="M512.021 320.5c6.639 0 12.02 5.382 12.02 12.021 0 6.639-5.381 12.02-12.02 12.02-6.639 0-12.021-5.381-12.021-12.02 0-6.639 5.382-12.021 12.021-12.021z" style="display:block" transform="rotate(-10 4432.435 -6340.013) scale(.5 .75)"/><g style="display:block"><path fill="#B82C2C" d="M1490.73 904.731a2.511 2.511 0 0 1 3.405-1.008l26.812 14.57a2.511 2.511 0 0 1 1.008 3.406l-.14.258c-4.685 8.624-15.474 11.814-24.097 7.13-8.624-4.687-11.815-15.476-7.13-24.098l.141-.258z"/><path fill="#FD5050" d="M1508.733 931.06a17.69 17.69 0 0 1-11.016-1.974 17.713 17.713 0 0 1-8.487-10.347 17.65 17.65 0 0 1 11.026 1.965 17.668 17.668 0 0 1 8.477 10.357z" opacity=".8"/></g><path fill="none" stroke="#3D3D3D" stroke-linecap="round" stroke-linejoin="round" stroke-width="24" d="M536.818 374.269c8.057 4.734 26.951 16.388 26.951 16.388l26.417.185" style="display:block" transform="rotate(-10 4050.077 -4835.871)"/><g style="display:block"><path fill="#FFF" d="M1530.698 900.895s13.448-6.935 18.02-8.018c1.847-8.122 5.557-24.31-3.736-23.41-6.418.62-10.024 9.595-10.753 13.571l-3.531 17.857zm-7.44-30.018-.9-.313c-5.748-1.242-11.756 1.104-13.166 6.672l-3.508 13.67c11.09 1.673 20.347 8.774 20.347 8.774l3.725-16.4c.97-3.829-1.287-11.029-6.499-12.403z"/><path fill="#3D3D3D" d="M1536.667 880.914c.363-2.834 2.088-5.1 4.418-4.835 2.33.265 3.362 2.735 3 5.569l-.23 1.786c-.362 2.834-2.105 4.93-4.31 4.695-2.205-.236-3.47-2.595-3.107-5.43l.229-1.785zm-26.635-2.023c.583-2.764 3.635-4.346 5.58-3.984 1.944.361 3.8 3.138 3.216 5.902l-.367 1.74c-.583 2.764-3.385 4.469-5.33 4.107-1.944-.362-4.05-3.261-3.467-6.025l.368-1.74z"/></g><path fill="none" stroke="#3D3D3D" stroke-linecap="round" stroke-linejoin="round" stroke-width="12" d="M568.75 333.5s7.5-2 11.5 1m17.608 3.473s7.344 2.513 8.997 7.232" style="display:block" transform="rotate(-10 4023.292 -4817.698)"/><path fill="#DB8D74" d="M571.295 372.25c4.029 0 7.295 3.217 7.295 7.186s-3.266 7.186-7.295 7.186-7.295-3.217-7.295-7.186 3.266-7.186 7.295-7.186z" style="display:block" transform="rotate(-10 3858.903 -4490.175) scale(1.1)"/></g></g><g style="display:block"><path fill="#DB8D74" d="M1426.493 950.161c-7.73 3.36-18.578 7.44-15.624 17.876 2.65 9.367 14.43 8.408 22.008 4.914 3.97 4.667 9.756 1.05 7.45-3.816-3.862-8.145-7.338-21.798-13.834-18.974z"/><path fill="none" stroke="#FFAADE" stroke-linecap="round" stroke-linejoin="round" stroke-width="25" d="m1431.217 928.247-.26 27.77"/></g></g></g></svg>